<svg id="Capa_1" data-name="Capa 1" xmlns="http://www.w3.org/2000/svg" viewBox="0 0 141.73 141.73"><defs><style>.cls-1{fill:#6bc3c8;}</style></defs><title>Icono_</title><path class="cls-1" d="M138,13.92A28.3,28.3,0,0,0,111.32,0,29.07,29.07,0,0,0,93.08,8.62C77.65,24,22.78,78.91,14.64,87.06a5.46,5.46,0,0,0-1.41,2.41L.91,133.73a5.83,5.83,0,0,0,.47,4.5A5.5,5.5,0,0,0,6.15,141a5.61,5.61,0,0,0,1.51-.21l44.52-12.64a5.52,5.52,0,0,0,2.39-9.2L26.51,90.78,91.9,25.38,116.23,49.7l-69.3,69.16c-.49,7.35,6.25,9.33,9.66,5.94l76.87-76.72A28.33,28.33,0,0,0,140.86,21,25.24,25.24,0,0,0,138,13.92ZM40.15,120.08l-26.06,7.41,7.3-26.23Zm85.52-79.8L124,41.92,99.7,17.59,101.34,16a17.2,17.2,0,1,1,24.33,24.33Z"/></svg>