<svg id="Capa_1" data-name="Capa 1" xmlns="http://www.w3.org/2000/svg" viewBox="0 0 141.73 141.73"><defs><style>.cls-1{fill:#6bc3c8;}</style></defs><title>Icono_</title><circle class="cls-1" cx="56.1" cy="36.57" r="2.72"/><circle class="cls-1" cx="85.21" cy="29.61" r="2.72"/><path class="cls-1" d="M128.23,76.31a27.26,27.26,0,0,0-15.15-24.39A53.58,53.58,0,0,0,97.44,33.48a2.7,2.7,0,0,0-1.62-.54,2.73,2.73,0,0,0-2.7,3.12,2.73,2.73,0,0,0,1.07,1.79,48.36,48.36,0,0,1,11.14,11.59,26.79,26.79,0,0,0-4.32-.35,27.18,27.18,0,0,0-18.82,7.57,30.15,30.15,0,0,0-2.74-3.15,29.83,29.83,0,0,0-21.17-8.77H56.1a8.17,8.17,0,0,1,0-16.33h9.53A48.18,48.18,0,0,1,73,29a2.74,2.74,0,0,0,2.18-.62,2.7,2.7,0,0,0,.43-3.68,2.64,2.64,0,0,0-1.77-1.08A54.09,54.09,0,0,0,65.63,23H56.1V14.8a2.72,2.72,0,0,0-2.72-2.72H52V3.91A2.72,2.72,0,0,0,49.3,1.19H38.41a2.72,2.72,0,0,0-2.72,2.72v8.17H34.33a2.72,2.72,0,0,0-2.72,2.72V58.34s.16.95.17,1l4.08,10.89A2.73,2.73,0,0,0,38.41,72H49.3a2.73,2.73,0,0,0,2.55-1.76L55.93,59.3l.17-1V50.18h2.18A24.53,24.53,0,0,1,78.56,60.94a27.14,27.14,0,0,0-1.11,29,24.4,24.4,0,0,1-19.17,9.25h-.82V93.73h4.09A2.72,2.72,0,0,0,64.27,91V80.12a2.72,2.72,0,0,0-2.72-2.72H26.16a2.72,2.72,0,0,0-2.72,2.72V91a2.72,2.72,0,0,0,2.72,2.72h4.09v30.75a13.64,13.64,0,0,0-10.89,13.34,2.72,2.72,0,0,0,2.72,2.72h72.4a2.72,2.72,0,0,0,2.72-2.72,13.63,13.63,0,0,0-9.71-13,54.36,54.36,0,0,0,22.2-18.68,51.92,51.92,0,0,0,3.2-5.31A27.25,27.25,0,0,0,128.23,76.31ZM46.48,27a13.61,13.61,0,0,0-2.92,14.92,13.78,13.78,0,0,0,2.92,4.33,13.55,13.55,0,0,0,4.18,2.85v6.57H37.05V17.52H50.66V24.1A13.55,13.55,0,0,0,46.48,27ZM41.13,6.63h5.45v5.45H41.13Zm6.28,59.88H40.3l-2-5.44H49.45ZM28.89,82.84H58.82v5.44H28.89Zm62.4,52.26h-66a8.18,8.18,0,0,1,7.7-5.45H83.59a8.18,8.18,0,0,1,7.7,5.45Zm8-25A48.23,48.23,0,0,1,65.2,124.21H35.69V93.73H52v8.16a2.73,2.73,0,0,0,2.72,2.73h3.54a29.94,29.94,0,0,0,21.17-8.77c.45-.45.88-.92,1.3-1.39a27.1,27.1,0,0,0,24.32,8.76,49.25,49.25,0,0,1-5.81,6.91Zm1.75-12a21.77,21.77,0,1,1,21.77-21.77A21.79,21.79,0,0,1,101,98.08Z"/><path class="cls-1" d="M101,62.7a13.61,13.61,0,1,0,13.61,13.61A13.63,13.63,0,0,0,101,62.7Zm0,21.77a8.17,8.17,0,1,1,8.17-8.16A8.17,8.17,0,0,1,101,84.47Z"/></svg>