<svg id="Capa_1" data-name="Capa 1" xmlns="http://www.w3.org/2000/svg" viewBox="0 0 141.73 141.73"><defs><style>.cls-1{fill:#6bc3c8;}</style></defs><title>Icono_</title><path class="cls-1" d="M140.32,129.77h-8.51V97.51a2.07,2.07,0,1,0-4.14,0v32.26H109.53V58.71h18.14V87.86a2.07,2.07,0,1,0,4.14,0V56.65a2.07,2.07,0,0,0-2.07-2.07H107.46a2.06,2.06,0,0,0-2.06,2.07v73.12h-4.78v-62a2.07,2.07,0,0,0-2.07-2.06H76.27a2.06,2.06,0,0,0-2.06,2.06v62H69.43V84.49a2.07,2.07,0,0,0-2.07-2.06H45.08A2.06,2.06,0,0,0,43,84.49v45.28H38.24V97.86a2.07,2.07,0,0,0-2.07-2.07H13.89a2.07,2.07,0,0,0-2.06,2.07v31.91H3.31a2.07,2.07,0,0,0-2.07,2.06v8.92a2.07,2.07,0,0,0,2.07,2.06H25.64a2.07,2.07,0,1,0,0-4.13H5.38V133.9H138.26v4.78h-103a2.07,2.07,0,1,0,0,4.13h105a2.06,2.06,0,0,0,2.07-2.06v-8.92a2.06,2.06,0,0,0-2.07-2.06Zm-62-59.92H96.48v59.92H78.34ZM47.15,86.56H65.29v43.21H47.15ZM16,99.93H34.1v29.84H16Z"/><path class="cls-1" d="M13.62,77.09H45.08A6.54,6.54,0,0,0,49.89,75L75.52,47H93a6.48,6.48,0,0,0,4.61-1.91l21.17-21.17v6.53a2.07,2.07,0,0,0,2.07,2.07h8.91a2.07,2.07,0,0,0,2.07-2.07V8.19a6.53,6.53,0,0,0-6.52-6.52H103a2.07,2.07,0,0,0-2.07,2.06v8.92A2.07,2.07,0,0,0,103,14.71h6.53L90.28,34H72.65a6.51,6.51,0,0,0-4.8,2.12l-25.64,28h-5.7a2.07,2.07,0,1,0,0,4.13h6.61a2.08,2.08,0,0,0,1.53-.67L70.89,38.88a2.39,2.39,0,0,1,1.76-.77H91.14a2.06,2.06,0,0,0,1.46-.61L116,14.11a2.07,2.07,0,0,0-1.46-3.53h-9.45V5.8h20.21a2.39,2.39,0,0,1,2.38,2.39V28.4H122.9V19a2.07,2.07,0,0,0-3.53-1.47l-24.7,24.7a2.38,2.38,0,0,1-1.69.7H74.61a2,2,0,0,0-1.52.67L46.84,72.18a2.36,2.36,0,0,1-1.76.78H15.68V68.18H26.86a2.07,2.07,0,1,0,0-4.13H13.62a2.06,2.06,0,0,0-2.07,2.06V75a2.06,2.06,0,0,0,2.07,2.07Z"/></svg>