<svg id="Capa_1" data-name="Capa 1" xmlns="http://www.w3.org/2000/svg" viewBox="0 0 141.73 141.73"><defs><style>.cls-1{fill:#5d4294;}</style></defs><title>Icono_</title><g id="Page-1"><g id="_001---Vet" data-name="001---Vet"><path id="Shape" class="cls-1" d="M0,75.58A21.28,21.28,0,0,0,21.26,96.84H44.89v23.63a21.29,21.29,0,0,0,21.26,21.26h9.46a21.28,21.28,0,0,0,21.26-21.26V106.55a9.87,9.87,0,0,1,2.36-.26,9.12,9.12,0,0,1,5.85,2,14,14,0,0,0,8.54,2.76,10.87,10.87,0,0,0,10.54-6.88A17.62,17.62,0,0,0,120,85.72a34.59,34.59,0,0,1-5-6.86c-3.13-5.1-6.35-10.37-15.7-10.37S86.66,73.76,83.54,78.86a34.47,34.47,0,0,1-5,6.85,17.66,17.66,0,0,0-4.2,18.43A10.88,10.88,0,0,0,84.84,111a13.31,13.31,0,0,0,7.3-2v11.43A16.55,16.55,0,0,1,75.61,137H66.15a16.56,16.56,0,0,1-16.53-16.54V96.84a4.72,4.72,0,0,0-4.73-4.72H21.26A16.55,16.55,0,0,1,4.73,75.58V66.13A16.55,16.55,0,0,1,21.26,49.59H44.89a4.73,4.73,0,0,0,4.73-4.73V21.24A16.56,16.56,0,0,1,66.15,4.7h9.46A16.55,16.55,0,0,1,92.14,21.24V39.32a10.81,10.81,0,0,0-9.35-3.75,10.62,10.62,0,0,0-7.83,6,18,18,0,0,0-1.68,10.93,18,18,0,0,0,4.69,10,10.93,10.93,0,0,0,7.83,3.61,10,10,0,0,0,1.35-.1A10.64,10.64,0,0,0,95,60,17.29,17.29,0,0,0,96.87,52V21.24A21.3,21.3,0,0,0,75.61,0H66.15A21.3,21.3,0,0,0,44.89,21.24V44.86H21.26A21.3,21.3,0,0,0,0,66.13Zm84.84,30.71a6.15,6.15,0,0,1-6.16-3.94,13.09,13.09,0,0,1,3.16-13.28,38.79,38.79,0,0,0,5.73-7.74c3-4.89,5-8.12,11.66-8.12s8.68,3.23,11.67,8.12a38.79,38.79,0,0,0,5.73,7.74,13.12,13.12,0,0,1,3.16,13.28,6.17,6.17,0,0,1-6.17,3.94,9.28,9.28,0,0,1-6-2,14.35,14.35,0,0,0-16.88,0A9.26,9.26,0,0,1,84.84,106.29Zm6-48.48a5.43,5.43,0,0,1-9.45,1.36A13.26,13.26,0,0,1,78,51.78a13.31,13.31,0,0,1,1.18-8.05,6,6,0,0,1,4.32-3.48c3.81-.55,7.71,3.81,8.53,9.51a17.14,17.14,0,0,1,.16,2.15v0a12.44,12.44,0,0,1-1.34,5.86Z"/><path id="Shape-2" data-name="Shape" class="cls-1" d="M61.51,60.62c-4.69,2.27-6.19,8.89-3.35,14.76A12.05,12.05,0,0,0,68.4,82.65a7.78,7.78,0,0,0,3.42-.77C76.51,79.61,78,73,75.17,67.13s-9-8.78-13.66-6.51Zm8.25,17c-2.31,1.12-5.67-.86-7.35-4.31S61.27,66,63.57,64.88A3.17,3.17,0,0,1,65,64.56a7.51,7.51,0,0,1,5.93,4.63c1.67,3.46,1.14,7.33-1.16,8.44Z"/><path id="Shape-3" data-name="Shape" class="cls-1" d="M111.31,66a10.22,10.22,0,0,0,1.35.1,11,11,0,0,0,7.84-3.61,18,18,0,0,0,4.69-10,18.1,18.1,0,0,0-1.68-10.93,10.64,10.64,0,0,0-7.83-6c-6.44-.93-12.67,5.14-13.88,13.52A18.18,18.18,0,0,0,103.48,60,10.66,10.66,0,0,0,111.31,66Zm-4.83-16.21c.77-5.38,4.29-9.56,7.88-9.56a3.56,3.56,0,0,1,.65,0,6,6,0,0,1,4.32,3.48,13.31,13.31,0,0,1,1.18,8.05,13.39,13.39,0,0,1-3.4,7.39,5.43,5.43,0,0,1-9.45-1.36A13.24,13.24,0,0,1,106.48,49.76Z"/><path id="Shape-4" data-name="Shape" class="cls-1" d="M126.64,81.88a7.73,7.73,0,0,0,3.41.77,12.06,12.06,0,0,0,10.25-7.28c2.83-5.86,1.34-12.48-3.35-14.75s-10.82.65-13.66,6.51S122,79.61,126.64,81.88Zm6.85-17.32a3.16,3.16,0,0,1,1.42.31c2.3,1.12,2.83,5,1.16,8.44s-5,5.44-7.34,4.32-2.84-5-1.16-8.44a7.5,7.5,0,0,1,5.92-4.63Z"/><path id="Shape-5" data-name="Shape" class="cls-1" d="M14.18,66.13A7.08,7.08,0,0,1,21.26,59a2.37,2.37,0,1,0,0-4.73A11.83,11.83,0,0,0,9.45,66.13a2.37,2.37,0,0,0,4.73,0Z"/><path id="Shape-6" data-name="Shape" class="cls-1" d="M33.08,59a2.37,2.37,0,0,0,0-4.73H30.71a2.37,2.37,0,0,0,0,4.73Z"/></g></g></svg>