<svg id="Capa_1" data-name="Capa 1" xmlns="http://www.w3.org/2000/svg" viewBox="0 0 141.73 141.73"><defs><style>.cls-1{fill:#5d4294;}</style></defs><title>Icono_</title><path class="cls-1" d="M71.17,73.35c6.28,0,11.38-4.11,11.38-9.17S77.45,55,71.17,55s-11.38,4.11-11.38,9.16S64.9,73.35,71.17,73.35Zm0-13.75c3.7,0,6.83,2.1,6.83,4.58s-3.13,4.59-6.83,4.59-6.83-2.1-6.83-4.59S67.47,59.6,71.17,59.6Z"/><path class="cls-1" d="M73.45,48.14a2.28,2.28,0,1,1-2.28-2.29A2.29,2.29,0,0,1,73.45,48.14Z"/><path class="cls-1" d="M63.68,54.34a2.3,2.3,0,0,0,0-3.24,2.28,2.28,0,0,0-3.22,0,2.3,2.3,0,0,0,0,3.24A2.26,2.26,0,0,0,63.68,54.34Z"/><path class="cls-1" d="M81.88,54.34a2.28,2.28,0,1,0-3.21,0A2.25,2.25,0,0,0,81.88,54.34Z"/><path class="cls-1" d="M139,58.32,80.61,3.73a13.81,13.81,0,0,0-18.88,0L3.36,58.32a8.69,8.69,0,0,0,5.86,15h.29a8.49,8.49,0,0,0,5.84-2.3L16.54,70v5.7h4.55v52.72H17.41l-6.83,13.75H131.76l-6.83-13.75h-3.68V75.65h4.55V70l1.18,1.1a8.54,8.54,0,0,0,5.85,2.3h.28a8.69,8.69,0,0,0,5.87-15ZM122.12,133l2.27,4.59H18L20.23,133ZM71.17,36.68A22.87,22.87,0,0,0,48.41,59.6c0,.77,0,1.54.11,2.29H25.21l46-42.72,46,42.72H93.82c.07-.75.11-1.52.11-2.29A22.87,22.87,0,0,0,71.17,36.68ZM57.9,78.19a22.5,22.5,0,0,0,26.54,0,36.71,36.71,0,0,1,23.15,34.13v16.05H34.75V112.32A36.71,36.71,0,0,1,57.9,78.19ZM34.75,93.47V75.65H52.44A41.19,41.19,0,0,0,34.75,93.47ZM53,59.6A18.21,18.21,0,1,1,71.17,77.94,18.3,18.3,0,0,1,53,59.6ZM89.9,75.65h17.69V93.48A41.16,41.16,0,0,0,89.9,75.65ZM49.46,66.48a22.64,22.64,0,0,0,2,4.58H21.09V66.48ZM30.2,75.65v52.72H25.65V75.65Zm81.94,52.72V75.65h4.55v52.72Zm9.11-57.31H90.85a22.64,22.64,0,0,0,2-4.58h28.37Zm11.87-2.29h-.29a4,4,0,0,1-2.75-1.09L71.17,12.93,12.27,67.68a4.05,4.05,0,0,1-2.76,1.09H9.22a4.1,4.1,0,0,1-2.76-7.09L64.83,7.09a9.51,9.51,0,0,1,12.68,0l58.37,54.59a4.1,4.1,0,0,1-2.76,7.09Z"/></svg>