<svg id="Capa_1" data-name="Capa 1" xmlns="http://www.w3.org/2000/svg" viewBox="0 0 141.73 141.73"><defs><style>.cls-1{fill:#878787;}</style></defs><title>Icono_</title><path class="cls-1" d="M127.93,47.26a2.77,2.77,0,0,0,2.76-2.76,2.76,2.76,0,0,0-4.71-2,2.82,2.82,0,0,0-.81,2,2.77,2.77,0,0,0,2.76,2.76Z"/><path class="cls-1" d="M54.65,122.25h0a2.76,2.76,0,0,0,0,5.52h0a2.76,2.76,0,1,0,0-5.52Z"/><path class="cls-1" d="M141.73,110.63V19.11a8.28,8.28,0,0,0-8.28-8.28H124V9.17a9.39,9.39,0,0,0-18.77,0v1.66H80.42V9.17a9.39,9.39,0,0,0-18.77,0v1.66H36.85V9.17a9.39,9.39,0,0,0-18.77,0v1.66H8.69A8.29,8.29,0,0,0,.41,19.11V132.83a8.3,8.3,0,0,0,8.28,8.28H111.26a2.75,2.75,0,0,0,1.95-.81h0l27.71-27.71h0A2.76,2.76,0,0,0,141.73,110.63Zm-31-101.46a3.87,3.87,0,0,1,7.73,0V22.7a3.87,3.87,0,0,1-7.73,0Zm-43.58,0a3.87,3.87,0,0,1,7.73,0V22.7a3.87,3.87,0,0,1-7.73,0V9.17Zm-43.57,0a3.87,3.87,0,0,1,7.73,0V22.7a3.87,3.87,0,0,1-7.73,0ZM5.93,132.83v-5.06H43.61a2.76,2.76,0,0,0,0-5.52H5.93v-75h111a2.76,2.76,0,1,0,0-5.52H5.93V19.11a2.77,2.77,0,0,1,2.76-2.76h9.39V22.7a9.39,9.39,0,0,0,18.77,0V16.35h24.8V22.7a9.39,9.39,0,0,0,18.77,0V16.35h24.81V22.7a9.39,9.39,0,0,0,18.77,0V16.35h9.45a2.77,2.77,0,0,1,2.76,2.76v88.76H116.78a8.29,8.29,0,0,0-8.28,8.28v19.44H8.69A2.77,2.77,0,0,1,5.93,132.83ZM114,131.68V116.15a2.77,2.77,0,0,1,2.76-2.76h15.53Z"/></svg>