<svg id="Capa_1" data-name="Capa 1" xmlns="http://www.w3.org/2000/svg" viewBox="0 0 141.73 141.73"><defs><style>.cls-1{fill:#5d4294;}</style></defs><title>Icono</title><path class="cls-1" d="M119,126.85a2.08,2.08,0,1,0,2.18,2.08A2.14,2.14,0,0,0,119,126.85Zm6.54-8.71v-12a20.59,20.59,0,0,0-3.66-11.7,2.25,2.25,0,0,0-3-.6,2,2,0,0,0-.62,2.88,16.61,16.61,0,0,1,2.94,9.42v10.5a13.29,13.29,0,0,0-4.36,0v-10.5c0-7.21-6.14-13.07-13.69-13.07s-13.69,5.86-13.69,13.07v12c0,9.5-8.1,17.22-18,17.22s-18.05-7.72-18.05-17.22V112a6.93,6.93,0,0,0,2.19.36,6.86,6.86,0,0,0,2.17-.36v6.18c0,7.21,6.14,13.07,13.69,13.07s13.69-5.86,13.69-13.07v-12c0-9.49,8.1-17.22,18-17.22a18.75,18.75,0,0,1,8.48,2,2.24,2.24,0,0,0,3-.85,2,2,0,0,0-.9-2.81,23.18,23.18,0,0,0-10.53-2.52c-12.35,0-22.41,9.6-22.41,21.39v12a9.34,9.34,0,0,1-18.66,0V89.74C84.36,86.67,101,68.4,101,46.8a6.34,6.34,0,0,0-4.36-5.89V21A15.88,15.88,0,0,0,84.6,5.75a8.07,8.07,0,0,0-8-6.28H72.26a8,8,0,0,0-8.14,7.76A8,8,0,0,0,72.26,15h4.35a8.16,8.16,0,0,0,7.61-5A11.66,11.66,0,0,1,92.3,21v20a6.4,6.4,0,0,0-4.36,6c-.06,17-14.59,30.8-32.39,30.8a33.39,33.39,0,0,1-20.56-7,2.25,2.25,0,0,0-3.06.28,2,2,0,0,0,.29,2.93,37.9,37.9,0,0,0,23.33,8c20.2,0,36.68-15.68,36.75-34.95a2.23,2.23,0,0,1,2-2.2,2.17,2.17,0,0,1,2.31,2.08c0,19.87-15.58,36.61-36.23,39a3,3,0,0,0-2.7,2.89v17.43a2.15,2.15,0,0,1-2.29,2.07A2.2,2.2,0,0,1,53.37,106V88.64a3,3,0,0,0-2.7-2.89C30,83.41,14.44,66.67,14.44,46.8a2.17,2.17,0,0,1,2.31-2.08,2.23,2.23,0,0,1,2.05,2.2,33.68,33.68,0,0,0,6.27,19.45,2.24,2.24,0,0,0,3,.56A2,2,0,0,0,28.68,64a29.78,29.78,0,0,1-5.53-17.13,6.38,6.38,0,0,0-4.35-6V21a11.66,11.66,0,0,1,8.08-11,8.16,8.16,0,0,0,7.61,5h4.35A8,8,0,0,0,47,7.23,8,8,0,0,0,38.84-.53H34.49a8.07,8.07,0,0,0-8,6.28A15.88,15.88,0,0,0,14.44,21V40.91a6.34,6.34,0,0,0-4.36,5.89c0,21.6,16.66,39.87,38.93,42.94v28.39c0,11.79,10.05,21.38,22.41,21.38s22.41-9.59,22.41-21.38v-12a9.35,9.35,0,0,1,18.67,0v12A12.38,12.38,0,0,0,106,128.93c0,6.88,5.86,12.48,13.07,12.48s13.08-5.6,13.08-12.48a12.4,12.4,0,0,0-6.54-10.79Zm-49-107.3H72.26a3.7,3.7,0,0,1-3.78-3.61,3.7,3.7,0,0,1,3.78-3.6h4.35a3.7,3.7,0,0,1,3.78,3.6A3.7,3.7,0,0,1,76.61,10.84ZM34.49,3.63h4.35a3.7,3.7,0,0,1,3.78,3.6,3.7,3.7,0,0,1-3.78,3.61H34.49a3.7,3.7,0,0,1-3.78-3.61A3.7,3.7,0,0,1,34.49,3.63ZM119,137.25a8.32,8.32,0,1,1,8.72-8.32A8.53,8.53,0,0,1,119,137.25Z"/></svg>