<svg id="Capa_1" data-name="Capa 1" xmlns="http://www.w3.org/2000/svg" viewBox="0 0 141.73 141.73"><defs><style>.cls-1{fill:#6bc3c8;}</style></defs><title>Icono_</title><path class="cls-1" d="M133.48,10.42a1.67,1.67,0,0,0-1.39-.73h0a1.67,1.67,0,0,0-1.39.73c-.22.33-5.37,7.93-6.7,10.75A13.47,13.47,0,0,0,122.45,27a9.64,9.64,0,1,0,19.28,0,12.82,12.82,0,0,0-1.56-5.86C138.83,18.32,133.7,10.75,133.48,10.42ZM132.09,33.3A6.29,6.29,0,0,1,125.8,27,10.26,10.26,0,0,1,127,22.6c.82-1.74,3.41-5.74,5-8.21,1.63,2.46,4.22,6.46,5,8.21A9.5,9.5,0,0,1,138.38,27,6.29,6.29,0,0,1,132.09,33.3Z"/><path class="cls-1" d="M17.63,134.81a5.16,5.16,0,1,0,7.39-7.2l-.09-.1-3.74-3.74,11.13-11.13,8,8a5.48,5.48,0,1,0,7.76-7.75h0l-.61-.61L96.22,63.52a6.08,6.08,0,0,0,.57-8l6.34-6.34a5.06,5.06,0,0,0,.93-5.86l8.07-8.07a6.9,6.9,0,0,0,1-8.42l18-18a1.68,1.68,0,1,0-2.37-2.37h0L110.8,24.49a6.9,6.9,0,0,0-8.43,1L94.3,33.6a5.06,5.06,0,0,0-5.86.93L82.1,40.87a6.08,6.08,0,0,0-8,.57L25.39,90.19l-.61-.61h0A5.49,5.49,0,0,0,17,97.34h0l8,8L13.89,116.47l-3.74-3.74a5.16,5.16,0,0,0-7.3,7.3ZM104.74,27.9a3.55,3.55,0,1,1,5,5h0l-7.9,7.89-5-5Zm-13.93,9a1.69,1.69,0,0,1,2.39,0l7.56,7.56a1.69,1.69,0,0,1,0,2.39l-6.3,6.29L84.52,43.2Zm-14.3,6.91a2.75,2.75,0,0,1,3.88,0h0L93.85,57.27a2.75,2.75,0,0,1,0,3.88h0l-4.37,4.37-6.2-6.21a1.68,1.68,0,0,0-2.38,2.37l6.21,6.21-3.63,3.62L81,69a1.68,1.68,0,1,0-2.38,2.37l2.51,2.51-3.62,3.63-6.2-6.21a1.68,1.68,0,1,0-2.38,2.37l6.21,6.21L71.5,83.5,69,81a1.68,1.68,0,0,0-2.38,2.37l2.51,2.51L65.5,89.5l-6.2-6.21a1.68,1.68,0,1,0-2.38,2.37l6.21,6.21-3.62,3.62L57,93a1.68,1.68,0,1,0-2.38,2.37l2.51,2.51-3.62,3.62-6.2-6.2a1.68,1.68,0,0,0-2.38,2.37l6.21,6.21-6,6L27.76,92.56ZM19.4,95a2.13,2.13,0,0,1,3-3l23.3,23.3a2.13,2.13,0,0,1-3,3Zm8,12.74L30,110.26,18.81,121.4l-2.55-2.55Zm-22.18,7.4a1.79,1.79,0,0,1,2.55,0l14.78,14.78A1.8,1.8,0,1,1,20,132.48l0,0L5.22,117.66a1.79,1.79,0,0,1,0-2.55Z"/><path class="cls-1" d="M77.93,50.29a1.82,1.82,0,0,0,0-3.64,1.78,1.78,0,0,0-1.28.54h0a1.82,1.82,0,0,0,1.28,3.1Z"/><path class="cls-1" d="M55.23,73.05a1.66,1.66,0,0,0,1.19-.5L75.76,53.22a1.68,1.68,0,0,0-2.38-2.38L54.05,70.18a1.69,1.69,0,0,0,1.18,2.87Z"/></svg>