<svg id="Capa_1" data-name="Capa 1" xmlns="http://www.w3.org/2000/svg" viewBox="0 0 141.73 141.73"><defs><style>.cls-1{fill:#6bc3c8;}</style></defs><title>Icono_</title><path class="cls-1" d="M86.56,63.27A2.76,2.76,0,0,0,83.81,66v2.49a2.76,2.76,0,1,0,5.51,0V66a2.76,2.76,0,0,0-2.76-2.76Z"/><path class="cls-1" d="M105.5,109.44a10.19,10.19,0,1,0,10.2,10.18A10.2,10.2,0,0,0,105.5,109.44Zm0,14.85a4.67,4.67,0,1,1,4.69-4.67A4.68,4.68,0,0,1,105.5,124.29Z"/><path class="cls-1" d="M105.5,98h-2V33.58c0-9.9-13.09-29.23-14.65-31.5h0a2.65,2.65,0,0,0-4.55,0v0c-1.56,2.27-14.65,21.6-14.65,31.5V98h-2a21.65,21.65,0,1,0,18.93,32.19A21.68,21.68,0,1,0,105.5,98ZM89.32,13.09C93.43,20,98,28.85,98,33.58v19a16.89,16.89,0,0,0-8.66-4.21ZM75.14,33.58c0-4.73,4.55-13.56,8.67-20.49V48.37a16.93,16.93,0,0,0-8.67,4.21Zm8.67,86a16.18,16.18,0,1,1-16.18-16.13c1,0,4,0,4.48.08a2.75,2.75,0,0,0,3-2.74V82a16.85,16.85,0,0,0,8.67,4.21v33.45Zm2.74-38.74a11.42,11.42,0,0,1-11.41-11.4V65.07A11.42,11.42,0,0,1,86.55,53.66h0A11.42,11.42,0,0,1,98,65.07v4.41a11.41,11.41,0,0,1-11.4,11.4Zm19,54.88a16.18,16.18,0,0,1-16.18-16.14V86.17A16.82,16.82,0,0,0,98,82v18.87a2.75,2.75,0,0,0,3,2.74c.49,0,3.49-.08,4.48-.08a16.14,16.14,0,1,1,0,32.27Z"/><path class="cls-1" d="M67.63,109.44a10.19,10.19,0,1,0,10.2,10.18,10.2,10.2,0,0,0-10.2-10.18Zm0,14.85a4.67,4.67,0,1,1,4.69-4.67,4.68,4.68,0,0,1-4.69,4.67Z"/><path class="cls-1" d="M39.41,52.64a2.75,2.75,0,0,0-2.75,2.76V79.21H20.05V25A19.36,19.36,0,0,1,36.66,5.88v24.6a2.76,2.76,0,1,0,5.51,0V2.93A2.76,2.76,0,0,0,39.41.17,24.87,24.87,0,0,0,14.54,25V127.38a13.82,13.82,0,0,0,27.63,0v-72a2.76,2.76,0,0,0-2.76-2.76Zm-2.75,74.74a8.31,8.31,0,0,1-16.61,0V96.56H36.66v30.82Zm0-36.33H20.05V84.72H36.66Z"/><path class="cls-1" d="M42,41.94a2.75,2.75,0,1,0-4.22,3.23A2.75,2.75,0,0,0,42,41.94Z"/></svg>