<svg id="Capa_1" data-name="Capa 1" xmlns="http://www.w3.org/2000/svg" viewBox="0 0 141.73 141.73"><defs><style>.cls-1{fill:#6bc3c8;}</style></defs><title>Icono_</title><path class="cls-1" d="M27.68,13.44H42.81V8.93a6.87,6.87,0,0,1,13.74,0v4.51H71.67V8.93a6.88,6.88,0,0,1,13.75,0v4.51h15.13V9A6.88,6.88,0,0,1,114.3,9v4.45h2.27a11.66,11.66,0,0,1,11.66,11.64V46.72a2.08,2.08,0,1,1-4.16,0v-6H68.82a2.08,2.08,0,1,1,0-4.15h55.25V25.08a7.51,7.51,0,0,0-7.5-7.49H114.3V22a6.88,6.88,0,0,1-13.75,0V17.59H85.42V22a6.88,6.88,0,0,1-13.75,0V17.59H56.55V22A6.88,6.88,0,0,1,42.8,22V17.59H27.68V22a6.88,6.88,0,0,1-13.75,0V17.59H11.64a7.53,7.53,0,0,0-7.49,7.49v11.5H59.41a2.08,2.08,0,1,1,0,4.15H4.15V102A2.08,2.08,0,0,1,0,102v-77A11.66,11.66,0,0,1,11.64,13.44h2.29V8.93a6.88,6.88,0,0,1,13.75,0Zm82.73,80.7a2.08,2.08,0,0,1,4.16,0v18.28a2,2,0,0,1-.59,1.44l-12.69,14.93a2.07,2.07,0,1,1-3.16-2.68l12.28-14.44Zm-12.65-2a2.07,2.07,0,1,1-2.43-3.35,28.78,28.78,0,0,1,8.13-4.15,29.38,29.38,0,0,1,9-1.43,29,29,0,0,1,11.58,2.39V56.12a2.08,2.08,0,0,1,4.16,0V87.76a29.6,29.6,0,0,1,4.94,4,29.25,29.25,0,1,1-46.45,34.52H10.8A10.81,10.81,0,0,1,0,115.47v-4a2.08,2.08,0,0,1,4.15,0v4a6.68,6.68,0,0,0,6.65,6.64H84.89a29.19,29.19,0,0,1-.35-18.29A29.49,29.49,0,0,1,88.3,96a2.07,2.07,0,1,1,3.42,2.33,24.84,24.84,0,0,0-4.32,14.1,25.1,25.1,0,1,0,25.09-25.09A24.85,24.85,0,0,0,97.76,92.1ZM88.67,49.54h24.51a2.08,2.08,0,0,1,2.08,2.07V76.13a2.08,2.08,0,0,1-2.08,2.08H88.67a2.08,2.08,0,0,1-2.08-2.08V51.61a2.08,2.08,0,0,1,2.08-2.07Zm22.44,4.15H90.75V74.06h20.36ZM51.85,84.63H76.37a2.08,2.08,0,0,1,2.08,2.08v24.52a2.08,2.08,0,0,1-2.08,2.08H51.85a2.08,2.08,0,0,1-2.07-2.08V86.71a2.08,2.08,0,0,1,2.07-2.08ZM74.3,88.79H53.93v20.37H74.3ZM51.85,49.54H76.37a2.08,2.08,0,0,1,2.08,2.07V76.13a2.08,2.08,0,0,1-2.08,2.08H51.85a2.08,2.08,0,0,1-2.07-2.08V51.61a2.07,2.07,0,0,1,2.07-2.07ZM74.3,53.69H53.93V74.06H74.3ZM15,84.63H39.56a2.08,2.08,0,0,1,2.07,2.08v24.52a2.08,2.08,0,0,1-2.07,2.08H15A2.08,2.08,0,0,1,13,111.23V86.71A2.08,2.08,0,0,1,15,84.63Zm22.45,4.16H17.11v20.37H37.48ZM15,49.54H39.56a2.07,2.07,0,0,1,2.07,2.07V76.13a2.08,2.08,0,0,1-2.07,2.08H15A2.08,2.08,0,0,1,13,76.13V51.61A2.07,2.07,0,0,1,15,49.54Zm22.45,4.15H17.11V74.06H37.48Zm70-47.42A2.73,2.73,0,0,0,104.7,9V22a2.73,2.73,0,0,0,2.73,2.72,2.67,2.67,0,0,0,1.91-.8,2.71,2.71,0,0,0,.8-1.92V9a2.73,2.73,0,0,0-2.71-2.72ZM22.73,7a2.73,2.73,0,0,0-4.65,1.92V22a2.73,2.73,0,0,0,5.45,0v-13A2.75,2.75,0,0,0,22.73,7Zm27-.8A2.73,2.73,0,0,0,47,8.93V22a2.72,2.72,0,0,0,5.43,0v-13a2.73,2.73,0,0,0-2.71-2.72Zm28.87,0a2.73,2.73,0,0,0-2.72,2.72V22a2.72,2.72,0,0,0,5.44,0v-13a2.73,2.73,0,0,0-2.72-2.72Z"/></svg>