<svg id="Capa_1" data-name="Capa 1" xmlns="http://www.w3.org/2000/svg" viewBox="0 0 141.73 141.73"><defs><style>.cls-1{fill:#6bc3c8;}</style></defs><title>Icono_</title><path class="cls-1" d="M70.35,73c6.25,0,11.34-4.09,11.34-9.12s-5.09-9.12-11.34-9.12S59,58.8,59,63.83,64.09,73,70.35,73Zm0-13.68c3.69,0,6.81,2.09,6.81,4.56S74,68.39,70.35,68.39s-6.81-2.09-6.81-4.56S66.66,59.27,70.35,59.27Z"/><path class="cls-1" d="M72.62,47.87a2.27,2.27,0,1,1-2.27-2.28A2.28,2.28,0,0,1,72.62,47.87Z"/><path class="cls-1" d="M62.87,54a2.28,2.28,0,0,0,0-3.22,2.25,2.25,0,0,0-3.2,0,2.28,2.28,0,0,0,0,3.22A2.25,2.25,0,0,0,62.87,54Z"/><path class="cls-1" d="M81,54a2.27,2.27,0,1,0-3.21,0A2.28,2.28,0,0,0,81,54Z"/><path class="cls-1" d="M138,58,79.76,3.71a13.79,13.79,0,0,0-18.82,0L2.74,58A8.64,8.64,0,0,0,8.59,73h.29a8.57,8.57,0,0,0,5.82-2.29l1.18-1.1v5.67h4.54v52.43H16.75L9.94,141.34H130.75l-6.81-13.68h-3.67V75.23h4.54V69.56l1.18,1.1A8.57,8.57,0,0,0,131.82,73h.28A8.65,8.65,0,0,0,138,58Zm-16.81,74.23,2.27,4.56H17.29l2.27-4.56ZM70.35,36.47a22.78,22.78,0,0,0-22.7,22.8c0,.77.05,1.53.12,2.28H24.53L70.35,19.06l45.82,42.49H92.92A21.48,21.48,0,0,0,93,59.27,22.77,22.77,0,0,0,70.35,36.47ZM57.12,77.75a22.42,22.42,0,0,0,26.46,0,36.54,36.54,0,0,1,23.08,34v16H34v-16A36.53,36.53,0,0,1,57.12,77.75ZM34,93V75.23H51.67A41,41,0,0,0,34,93ZM52.19,59.27A18.16,18.16,0,1,1,70.35,77.51,18.22,18.22,0,0,1,52.19,59.27ZM89,75.23h17.64V93A41,41,0,0,0,89,75.23ZM48.7,66.11a22.75,22.75,0,0,0,2,4.56H20.42V66.11ZM29.5,75.23v52.43H25V75.23Zm81.69,52.43V75.23h4.54v52.43Zm9.08-57H90a22.2,22.2,0,0,0,2-4.56h28.28Zm11.84-2.28h-.29a4,4,0,0,1-2.75-1.08L70.35,12.86,11.62,67.31a4,4,0,0,1-2.74,1.08H8.59a4.08,4.08,0,0,1-2.76-7L64,7.05a9.5,9.5,0,0,1,12.64,0l58.19,54.29a4.07,4.07,0,0,1-2.75,7Z"/></svg>