<svg id="Capa_1" data-name="Capa 1" xmlns="http://www.w3.org/2000/svg" viewBox="0 0 141.73 141.73"><defs><style>.cls-1{fill:#5d4294;}</style></defs><title>Icono_</title><path class="cls-1" d="M126,27.57h4.33a2.74,2.74,0,0,0,0-5.48H120a2.74,2.74,0,0,0-2.74,2.74v10.4a2.74,2.74,0,0,0,5.48,0v-3A64.61,64.61,0,1,1,78.75,6.69a2.74,2.74,0,0,0,.66-5.44A71.45,71.45,0,0,0,70.87.74,70.12,70.12,0,0,0,21.28,120.45,70.12,70.12,0,0,0,126,27.57Z"/><path class="cls-1" d="M30.43,42.08a2.74,2.74,0,0,0-3.78.85A52.3,52.3,0,1,0,43,26.6a2.74,2.74,0,1,0,2.92,4.63A46.82,46.82,0,1,1,37.76,104a47.12,47.12,0,0,1-6.48-58.11A2.74,2.74,0,0,0,30.43,42.08Z"/><path class="cls-1" d="M106.46,73.65h3.37a2.74,2.74,0,1,0,0-5.48h-3.37a2.74,2.74,0,1,0,0,5.48Z"/><path class="cls-1" d="M29.16,70.82a2.74,2.74,0,0,0,2.74,2.74h3.38a2.74,2.74,0,0,0,0-5.48H31.9A2.74,2.74,0,0,0,29.16,70.82Z"/><path class="cls-1" d="M73.65,35.28V31.9a2.74,2.74,0,0,0-5.48,0v3.38a2.74,2.74,0,0,0,5.48,0Z"/><path class="cls-1" d="M68.08,106.46v3.37a2.74,2.74,0,1,0,5.48,0v-3.37a2.74,2.74,0,0,0-5.48,0Z"/><path class="cls-1" d="M57.14,53.27a2.74,2.74,0,1,0-3.87,3.87l9.28,9.28a9.44,9.44,0,1,0,16.63,0L97.9,47.7A2.74,2.74,0,0,0,94,43.83L75.31,62.55a9.46,9.46,0,0,0-8.89,0Zm17.68,17.6a4,4,0,1,1-3.95-4A4,4,0,0,1,74.82,70.87Z"/><path class="cls-1" d="M37.76,37.76a2.74,2.74,0,1,0-1.93.8A2.75,2.75,0,0,0,37.76,37.76Z"/><path class="cls-1" d="M89.83,8.92a2.75,2.75,0,0,0,2.74-2.74,2.74,2.74,0,0,0-4.68-1.94,2.81,2.81,0,0,0-.8,1.94,2.75,2.75,0,0,0,2.74,2.74Z"/></svg>