<svg id="Capa_1" data-name="Capa 1" xmlns="http://www.w3.org/2000/svg" viewBox="0 0 141.73 141.73"><defs><style>.cls-1{fill:#6bc3c8;}</style></defs><title>Icono_</title><path class="cls-1" d="M139,10.35A20.67,20.67,0,0,0,110.7,2.78L80.8,20.05a16,16,0,0,1-4.25,1.65,35.72,35.72,0,0,0-24,19.4L41.6,47.42a7.32,7.32,0,0,0-3.53,7.52L17.42,68.42a16.15,16.15,0,0,0-6.87,17.12A16.11,16.11,0,0,0,24.41,97.89l69,7.79a11.36,11.36,0,0,1-1.28,22.65H29.86v-1.64a6.16,6.16,0,1,0-12.32,0v1.64H15a6.89,6.89,0,1,0-6.58,8.95,2.06,2.06,0,0,0,0-4.11,2.78,2.78,0,0,1-.33-5.55,2.77,2.77,0,0,1,3,2.06,3.71,3.71,0,0,0,3.58,2.76h2.89v1.64a6.16,6.16,0,0,0,12.32,0v-1.64H92.12a15.47,15.47,0,0,0,1.74-30.84l-69-7.8a12,12,0,0,1-5.2-21.94L39.91,58.65a7.3,7.3,0,0,0,9.29,1.14A35.7,35.7,0,0,0,95.73,90.53a2.06,2.06,0,0,0-1.27-3.91,31.62,31.62,0,0,1-41.3-30.28,2.06,2.06,0,0,0-3.08-1.8l-3.28,1.9A3.15,3.15,0,0,1,43.65,51l11.51-6.65A2,2,0,0,0,56,43.4,31.59,31.59,0,0,1,77.5,25.7a19.83,19.83,0,0,0,5.35-2.1L112.76,6.34A16.57,16.57,0,0,1,137.05,25a17.2,17.2,0,0,1-8.3,10.39,24.51,24.51,0,0,0-12.33,21.09A31.76,31.76,0,0,1,100.6,83.89a2.05,2.05,0,1,0,2.06,3.55,35.86,35.86,0,0,0,17.87-31,20.38,20.38,0,0,1,10.28-17.53A21.3,21.3,0,0,0,141,26,20.55,20.55,0,0,0,139,10.35ZM25.75,134.08a2.05,2.05,0,1,1-4.1,0v-7.39a2.05,2.05,0,1,1,4.1,0ZM72.89,38.15A23.18,23.18,0,0,1,76,36.69a2.05,2.05,0,1,0-1.49-3.83,26.83,26.83,0,0,0-3.63,1.74A26,26,0,0,0,61.34,70a25.93,25.93,0,0,0,44.92-25.93A25.82,25.82,0,0,0,82.41,31.15a2.06,2.06,0,0,0,.22,4.11A21.74,21.74,0,0,1,102.7,46.14a22.12,22.12,0,0,1-8,29.82A21.83,21.83,0,0,1,72.89,38.15Zm35.4-.09a12.17,12.17,0,0,0,9.27-1.22l9.55-5.52a12.22,12.22,0,0,0-12.22-21.16l-9.55,5.52a12.22,12.22,0,0,0,3,22.38Zm-.9-18.83,9.55-5.51a8.11,8.11,0,1,1,8.11,14l-9.55,5.52a8.11,8.11,0,0,1-8.11-14Z"/></svg>