<svg id="Capa_1" data-name="Capa 1" xmlns="http://www.w3.org/2000/svg" viewBox="0 0 141.73 141.73"><defs><style>.cls-1{fill:#6bc3c8;}</style></defs><title>Icono_</title><path class="cls-1" d="M117.37,17.72H93V13.29A13.3,13.3,0,0,0,79.72,0H62A13.3,13.3,0,0,0,48.72,13.29v4.43H24.36A11.07,11.07,0,0,0,13.29,28.79v15.5a4.43,4.43,0,0,0,4.43,4.43h2.42L24,129.08a13.28,13.28,0,0,0,13.28,12.65H104.5a13.27,13.27,0,0,0,13.27-12.65l3.83-80.36H124a4.42,4.42,0,0,0,4.42-4.43V28.79a11.07,11.07,0,0,0-11.07-11.07ZM57.58,13.29A4.44,4.44,0,0,1,62,8.86H79.72a4.43,4.43,0,0,1,4.43,4.43v4.43H57.58ZM22.15,28.79a2.22,2.22,0,0,1,2.21-2.22h93a2.23,2.23,0,0,1,2.22,2.22V39.86H22.15Zm86.77,99.87a4.42,4.42,0,0,1-4.42,4.21H37.24a4.42,4.42,0,0,1-4.43-4.21L29,48.72h83.72Z"/><path class="cls-1" d="M70.87,124a4.44,4.44,0,0,0,4.43-4.43V62a4.43,4.43,0,1,0-8.86,0v57.58A4.43,4.43,0,0,0,70.87,124Z"/><path class="cls-1" d="M93,124a4.43,4.43,0,0,0,4.43-4.43V62a4.43,4.43,0,1,0-8.86,0v57.58A4.44,4.44,0,0,0,93,124Z"/><path class="cls-1" d="M48.72,124a4.43,4.43,0,0,0,4.43-4.43V62a4.43,4.43,0,0,0-8.86,0v57.58A4.43,4.43,0,0,0,48.72,124Z"/></svg>