<svg id="Capa_1" data-name="Capa 1" xmlns="http://www.w3.org/2000/svg" viewBox="0 0 141.73 141.73"><defs><style>.cls-1{fill:#5d4294;}</style></defs><title>Icono_</title><path class="cls-1" d="M47.32,94.41v41.2a5.89,5.89,0,0,0,5.89,5.89h82.4a5.88,5.88,0,0,0,5.89-5.89V6.12A5.89,5.89,0,0,0,135.61.23H53.21a5.89,5.89,0,0,0-5.89,5.89v41.2a5.89,5.89,0,1,0,11.77,0V12h70.64V129.73H59.09V94.41a5.89,5.89,0,1,0-11.77,0Z"/><path class="cls-1" d="M2,75H2L25.5,98.57a5.88,5.88,0,1,0,8.32-8.32L20.33,76.75H70.87a5.89,5.89,0,0,0,0-11.77H20.33l13.49-13.5a5.88,5.88,0,1,0-8.32-8.32L2,66.7H2a5.08,5.08,0,0,0-.38.43,1.66,1.66,0,0,0-.16.21c-.06.08-.13.16-.19.25l-.15.26a1.76,1.76,0,0,0-.14.23c-.05.09-.09.18-.13.27l-.12.25c0,.09-.07.18-.1.27a2.29,2.29,0,0,0-.09.28c0,.09,0,.18-.07.26s0,.2-.07.3A1.54,1.54,0,0,0,.3,70c0,.08,0,.17,0,.26a5.62,5.62,0,0,0,0,1.16c0,.08,0,.17,0,.25s0,.21,0,.32,0,.19.07.29a2,2,0,0,0,.07.26,2.29,2.29,0,0,0,.09.28c0,.09.06.18.1.27l.12.25c0,.09.08.18.13.27s.09.16.14.24l.15.25.19.26.16.21A5,5,0,0,0,2,75Z"/></svg>