<svg id="Capa_1" data-name="Capa 1" xmlns="http://www.w3.org/2000/svg" viewBox="0 0 141.73 141.73"><defs><style>.cls-1{fill:#878787;}</style></defs><title>Icono_</title><path class="cls-1" d="M16.06,31.85A3.72,3.72,0,0,0,10.93,33,70.9,70.9,0,1,0,33.12,10.87a3.71,3.71,0,0,0,4,6.28A63.47,63.47,0,1,1,26,115.76,63.86,63.86,0,0,1,17.21,37,3.73,3.73,0,0,0,16.06,31.85Z"/><path class="cls-1" d="M26,26a3.69,3.69,0,0,0,0-5.24,3.71,3.71,0,0,0-6.33,2.62A3.68,3.68,0,0,0,20.75,26,3.69,3.69,0,0,0,26,26Z"/><path class="cls-1" d="M70.05,31.08a4.72,4.72,0,1,1,9.44,0v41.6A4.63,4.63,0,0,1,78.15,76l-28.87,34a4.71,4.71,0,1,1-7.19-6.08L70.05,71Z"/></svg>