<svg id="Capa_1" data-name="Capa 1" xmlns="http://www.w3.org/2000/svg" viewBox="0 0 141.73 141.73"><defs><style>.cls-1{fill:#6bc3c8;}</style></defs><title>Icono_</title><path class="cls-1" d="M133.43,72.33h-8.31V28.13a13.84,13.84,0,1,0-27.68,0V30.9H94.67a2.77,2.77,0,0,0,0,5.53h11.08a2.77,2.77,0,0,0,0-5.53H103V28.13a8.31,8.31,0,1,1,16.61,0v44.2H8.3A8.31,8.31,0,0,0,5.54,88.47c0,8,.3,18.4,4.52,27.28a28.62,28.62,0,0,0,17.42,15.37l-1.88,7a2.77,2.77,0,0,0,1.95,3.39,3,3,0,0,0,.72.09,2.76,2.76,0,0,0,2.67-2.05l1.9-7.07a53.47,53.47,0,0,0,9.59.82h66.68l1.68,6.25a2.76,2.76,0,0,0,2.67,2.05,3,3,0,0,0,.72-.09,2.77,2.77,0,0,0,2-3.39l-1.36-5.07a25,25,0,0,0,21.42-24.71V88.46a8.3,8.3,0,0,0-2.77-16.13ZM38.75,77.87H60.9V97.31a2.7,2.7,0,0,1-2.7,2.7H41.46a2.71,2.71,0,0,1-2.71-2.7V77.87ZM8.3,83.4a2.77,2.77,0,0,1,0-5.53H33.22V83.4ZM130.66,94.48H115.24a2.77,2.77,0,1,0,0,5.53h15.42v8.35a19.44,19.44,0,0,1-19.42,19.42H42.43a44.67,44.67,0,0,1-10.82-1.2l-.05,0h-.07c-7.76-2-13.18-6.33-16.43-13.17-3.62-7.63-4-17-4-24.44H33.22v8.37a8.25,8.25,0,0,0,8.24,8.24H58.2a8.25,8.25,0,0,0,8.24-8.24V88.94h64.22v5.54Zm2.77-11.08h-67V77.87h67a2.77,2.77,0,1,1,0,5.53Z"/><path class="cls-1" d="M40.85,116.69c-8.12-.25-12.73-2.45-15.42-7.39A2.77,2.77,0,0,0,20.57,112c4.81,8.8,13.78,10.07,20.11,10.26h.09a2.77,2.77,0,0,0,.08-5.53Z"/><path class="cls-1" d="M49.13,116.71H49a2.77,2.77,0,0,0,0,5.54h.18a2.77,2.77,0,0,0,0-5.54Z"/><path class="cls-1" d="M107.19,94.48h-.13a2.77,2.77,0,1,0,0,5.53h.13a2.77,2.77,0,1,0,0-5.53Z"/></svg>