<svg id="Capa_1" data-name="Capa 1" xmlns="http://www.w3.org/2000/svg" viewBox="0 0 141.73 141.73"><defs><style>.cls-1{fill:#5d4294;}</style></defs><title>Icono_</title><path class="cls-1" d="M139.27,62.85l-65-52.15a5.52,5.52,0,0,0-6.77,0l-65,52.15a5.85,5.85,0,0,0-.94,7.93,5.22,5.22,0,0,0,7.55,1l10.25-8.23v63h0v.2A5.37,5.37,0,0,0,23.63,132a5.41,5.41,0,0,0,1.34.18h93.37a5.48,5.48,0,0,0,1.34-.18,5.38,5.38,0,0,0,4.31-5.27v-.2h0V64.81l8.68,7a5.21,5.21,0,0,0,7.54-1A5.85,5.85,0,0,0,139.27,62.85Zm-26,58.05H30.07v-66L70.87,22.2l42.37,34Z"/></svg>