<svg id="Capa_1" data-name="Capa 1" xmlns="http://www.w3.org/2000/svg" viewBox="0 0 141.73 141.73"><defs><style>.cls-1{fill:#6bc3c8;}</style></defs><title>Icono_</title><path class="cls-1" d="M84.89,62.57a2.74,2.74,0,0,0-2.73,2.74v2.47a2.73,2.73,0,1,0,5.46,0V65.31a2.74,2.74,0,0,0-2.73-2.74Z"/><path class="cls-1" d="M103.67,108.35a10.1,10.1,0,1,0,10.12,10.1A10.12,10.12,0,0,0,103.67,108.35Zm0,14.74a4.64,4.64,0,1,1,4.65-4.64A4.65,4.65,0,0,1,103.67,123.09Z"/><path class="cls-1" d="M103.67,97l-2,0V33.12c0-9.8-13-29-14.52-31.23h0a2.62,2.62,0,0,0-4.51,0h0C81.08,4.15,68.1,23.32,68.1,33.12V97l-2,0a21.47,21.47,0,1,0,18.78,31.93A21.5,21.5,0,1,0,103.67,97Zm-16-84.17c4.08,6.86,8.6,15.62,8.6,20.3V52a16.78,16.78,0,0,0-8.6-4.18ZM73.57,33.12c0-4.68,4.51-13.44,8.59-20.3v35A16.75,16.75,0,0,0,73.57,52Zm8.59,85.33a16,16,0,1,1-16-16c1,0,4,0,4.45.09a2.73,2.73,0,0,0,2.11-.69,2.76,2.76,0,0,0,.9-2V81.11a16.66,16.66,0,0,0,8.59,4.17v33.17ZM84.88,80A11.32,11.32,0,0,1,73.57,68.73V64.35a11.32,11.32,0,0,1,11.31-11.3h0a11.32,11.32,0,0,1,11.31,11.3v4.38A11.32,11.32,0,0,1,84.91,80Zm18.79,54.41a16,16,0,0,1-16-16V85.28a16.69,16.69,0,0,0,8.6-4.17V99.82a2.72,2.72,0,0,0,.9,2,2.69,2.69,0,0,0,2.1.69c.5-.05,3.47-.09,4.45-.09a16,16,0,1,1,0,32Z"/><path class="cls-1" d="M66.11,108.35a10.1,10.1,0,1,0,10.12,10.1,10.12,10.12,0,0,0-10.12-10.1Zm0,14.74a4.64,4.64,0,1,1,4.65-4.64,4.65,4.65,0,0,1-4.65,4.64Z"/><path class="cls-1" d="M38.13,52a2.73,2.73,0,0,0-2.73,2.73V78.38H18.94V24.61A19.19,19.19,0,0,1,35.4,5.66v24.4a2.74,2.74,0,0,0,5.47,0V2.73A2.74,2.74,0,0,0,38.13,0,24.67,24.67,0,0,0,13.47,24.61V126.15a13.7,13.7,0,0,0,27.4,0V54.76A2.74,2.74,0,0,0,38.13,52ZM35.4,126.15a8.23,8.23,0,0,1-16.46,0V95.58H35.4v30.57Zm0-36H18.94V83.85H35.4Z"/><path class="cls-1" d="M40.66,41.42a2.73,2.73,0,1,0-1,3.31,2.77,2.77,0,0,0,1-3.31Z"/></svg>