<svg id="Capa_1" data-name="Capa 1" xmlns="http://www.w3.org/2000/svg" viewBox="0 0 141.73 141.73"><defs><style>.cls-1{fill:#6bc3c8;}</style></defs><title>Icono_</title><path class="cls-1" d="M97.46,42.4a2.07,2.07,0,1,0-2.93-2.93l-6.2,6.2a17.58,17.58,0,0,0-5.92-9.49l5.75-8.31a2.07,2.07,0,0,0-3.4-2.35L79,33.84a15,15,0,0,0-14.34,0l-5.76-8.32a2.07,2.07,0,0,0-3.4,2.35l5.75,8.31C58,39,55.14,43.33,55.14,47.5a8.89,8.89,0,0,0,.8,3.68A79.68,79.68,0,0,0,51.21,58l-8.62-1.83a.35.35,0,0,1-.26-.26l-2.25-13a2.06,2.06,0,1,0-4.07.7l2.25,13a4.45,4.45,0,0,0,3.47,3.61L49,61.71A47.24,47.24,0,0,0,45.25,71H39.33a8,8,0,0,0-6.59,3.47L29,79.86a2.07,2.07,0,1,0,3.41,2.34l3.71-5.42a3.83,3.83,0,0,1,3.17-1.68h5a30.28,30.28,0,0,0,.94,13.63l-18.39,18.4a57.27,57.27,0,0,1,80.44-80.44l-5.8,5.8a2.06,2.06,0,1,0,2.92,2.92L111.86,28a2.06,2.06,0,0,0,.6-1.56c-.06-1.3-1.17-1.74-1.71-2.28a61.4,61.4,0,0,0-86.41,86.41l.78,1a2.07,2.07,0,0,0,3.06.15L97.46,42.4ZM63.85,70.15a45.88,45.88,0,0,0-15.32,5c1.15-6.29,4.53-13.26,9.95-20.48,3,2.85,7.85,4.64,13.34,4.64a23.5,23.5,0,0,0,3.06-.19Zm8-34c6.81,0,12.55,7,12.55,11.35,0,4.16-5.74,7.68-12.55,7.68-5.12,0-9.68-2-11.59-4.79a5.19,5.19,0,0,1-1-2.88C59.27,43,65.18,36.15,71.82,36.15ZM48.08,80.25a37.07,37.07,0,0,1,10.4-4.72l-9.8,9.8a26.62,26.62,0,0,1-.6-5.08Z"/><path class="cls-1" d="M71.82,1.07a70.57,70.57,0,1,0,70.56,70.56A70.53,70.53,0,0,0,71.82,1.07Zm0,137a66.43,66.43,0,1,1,66.43-66.43A66.39,66.39,0,0,1,71.82,138.06Z"/><path class="cls-1" d="M119.31,32.7c-.55-.54-1-1.64-2.28-1.7a2.08,2.08,0,0,0-1.57.6L31.79,115.28a2.07,2.07,0,0,0-.61,1.56c.07,1.3,1.17,1.73,1.71,2.28A61.41,61.41,0,0,0,119.31,32.7ZM63.94,96.26a2.07,2.07,0,0,0-2.43-1.63c-1.45.28-2.88.63-4.26,1L78.73,74.18a40.54,40.54,0,0,1,16.83,6.08c-.08,5.2-1.86,10.81-5.29,16.71a51.16,51.16,0,0,0-18.45-3.33,2.07,2.07,0,0,0,0,4.14A47.34,47.34,0,0,1,88,100.54a82.08,82.08,0,0,1-9.07,11,10,10,0,0,1-14.25,0,81.32,81.32,0,0,1-9.07-11,42.88,42.88,0,0,1,6.68-1.85,2.07,2.07,0,0,0,1.63-2.43ZM95.12,75.15a44.36,44.36,0,0,0-12.8-4.56l8-8a50.29,50.29,0,0,1,2.91,6.12A35.34,35.34,0,0,1,95.12,75.15Zm7.09-24.45-.9,5.16a.32.32,0,0,1-.25.26l-5.42,1.15ZM129,74.28a57.27,57.27,0,0,1-92.7,42.3l5.78-5.78,1.56,4.51A2.07,2.07,0,1,0,47.58,114l-2.22-6.41,6-6a83,83,0,0,0,10.39,12.83,14.08,14.08,0,0,0,20.17,0,82.88,82.88,0,0,0,11-13.73h0q1.23-2,2.24-3.93l4,3a2.51,2.51,0,0,1,.89,2.87l-4,11.4a2.07,2.07,0,1,0,3.91,1.35l4-11.4a6.65,6.65,0,0,0-2.34-7.55L96.9,92.9a31.74,31.74,0,0,0,2.41-17.8h5a3.84,3.84,0,0,1,3.17,1.68l3.71,5.42a2.07,2.07,0,1,0,3.41-2.34l-3.71-5.42A8,8,0,0,0,104.32,71H98.39c-.36-1.25-.78-2.52-1.28-3.8a52.51,52.51,0,0,0-2.52-5.45l7.32-1.55a4.46,4.46,0,0,0,3.48-3.61l1.89-10.93,9.49-9.49A57.14,57.14,0,0,1,129,74.28Z"/></svg>