<svg id="Capa_1" data-name="Capa 1" xmlns="http://www.w3.org/2000/svg" viewBox="0 0 141.73 141.73"><defs><style>.cls-1{fill:#6bc3c8;}</style></defs><title>Icono_</title><path class="cls-1" d="M38.05,106.19a11.69,11.69,0,1,0,4.28,16A11.71,11.71,0,0,0,38.05,106.19Zm-1,12.9a5.54,5.54,0,1,1-2-7.57A5.55,5.55,0,0,1,37,119.09Z"/><path class="cls-1" d="M70.65,72.1a3.08,3.08,0,0,0-2.17,5.25,3.05,3.05,0,0,0,4.35,0,3.09,3.09,0,0,0,.9-2.17,3.07,3.07,0,0,0-3.08-3.08Z"/><path class="cls-1" d="M86.61,31.77a3.1,3.1,0,0,0,2.18-.9,3.13,3.13,0,0,0,.9-2.18,3.09,3.09,0,0,0-3.08-3.08,3.06,3.06,0,0,0-2.17.91,3.09,3.09,0,0,0-.9,2.17,3.13,3.13,0,0,0,.9,2.18A3.09,3.09,0,0,0,86.61,31.77Z"/><path class="cls-1" d="M112.13,105a11.7,11.7,0,1,0,7.1,5.45A11.66,11.66,0,0,0,112.13,105Zm2.33,12.73a5.55,5.55,0,1,1-.56-4.2h0A5.51,5.51,0,0,1,114.46,117.75Z"/><path class="cls-1" d="M11.32,41.59a4,4,0,0,0-1.29.28l2.47-.25Z"/><path class="cls-1" d="M131,103.7a25.26,25.26,0,0,0-34.47-9.23A24.83,24.83,0,0,0,93,96.92L82.75,79.22,111,30.36a21.94,21.94,0,0,0-8-29.95,3.06,3.06,0,0,0-4.2,1.13L90.87,15.16a3.08,3.08,0,0,0,5.33,3.08l6.18-10.7a15.78,15.78,0,0,1,3.25,19.74L81.53,69,74.21,56.34l8.15-14.12A3.08,3.08,0,0,0,77,39.14l-6.38,11L42.57,1.54A3.11,3.11,0,0,0,40.7.1a3.06,3.06,0,0,0-2.33.31,21.92,21.92,0,0,0-8,30l5.15,8.92.76,1.31.62,1.07L58.55,79.22,48.33,96.92a24.41,24.41,0,0,0-3.51-2.45,25.23,25.23,0,1,0,9.23,34.46l16.6-28.75,16.6,28.75a25.1,25.1,0,0,0,15.33,11.76,25.4,25.4,0,0,0,6.57.87A25.25,25.25,0,0,0,131,103.7ZM48.72,125.86a19.07,19.07,0,1,1-7-26.07A19.1,19.1,0,0,1,48.72,125.86ZM57,111.58a25.31,25.31,0,0,0-4.25-9.94l9.4-16.27,5,8.65Zm27.77-1.79h0c-.15.59-.28,1.18-.4,1.77L60.16,69.69h0L43.89,41.51h0L35.67,27.28A15.79,15.79,0,0,1,38.93,7.54L62.85,49h0L72.6,65.88h0L78,75.19l-1.44,2.49a3.08,3.08,0,0,0,0,3.08l12,20.87A25.22,25.22,0,0,0,84.73,109.79Zm33.91,23h0a19.08,19.08,0,1,1,7-26.06A18.92,18.92,0,0,1,118.64,132.84Z"/></svg>