<svg id="Capa_1" data-name="Capa 1" xmlns="http://www.w3.org/2000/svg" viewBox="0 0 141.73 141.73"><defs><style>.cls-1{fill:#6bc3c8;}</style></defs><title>Icono_</title><path class="cls-1" d="M46.92,80.2,58.66,68.46l5.87,5.87L52.79,86.07Z"/><path class="cls-1" d="M100.38,25.07a7.58,7.58,0,0,1,7.56,7.57h8.31a15.9,15.9,0,0,0-15.87-15.86Z"/><path class="cls-1" d="M124.71,32.66H133A32.79,32.79,0,0,0,100.35,0V8.3A24.39,24.39,0,0,1,124.71,32.66Z"/><path class="cls-1" d="M4,134a12.25,12.25,0,0,0,11.51,7.68h117v-8.3H15.5a4.15,4.15,0,0,1-2.94-7.09L17,121.84a20.75,20.75,0,0,0,26.13-2.64L73.36,89c2.14-2.14,6.71-1.94,11.55-1.72,6.13.27,13.07.58,17.8-4.15l19.91-19.91L121,60.45A141.56,141.56,0,0,0,72.56,12.06l-2.78-1.67L49.87,30.3c-4.63,4.62-4.44,11.33-4.15,17.8.22,4.84.43,9.41-1.72,11.56L13.81,89.84A20.76,20.76,0,0,0,11.17,116l-4.48,4.48A12.26,12.26,0,0,0,4,134ZM71,20.88A133.33,133.33,0,0,1,112.14,62l-6,6A124.49,124.49,0,0,0,65,26.91ZM19.68,95.71,49.87,65.53c4.73-4.74,4.42-11.68,4.15-17.8-.16-3.45-.6-9.24,1.72-11.56L59,33a115.61,115.61,0,0,1,41.1,41.1l-3.21,3.21C94.7,79.41,90.13,79.21,85.29,79c-6.13-.27-13.07-.58-17.8,4.15L37.3,113.33A12.46,12.46,0,0,1,19.68,95.71Z"/><circle class="cls-1" cx="132.46" cy="137.56" r="4.15"/><circle class="cls-1" cx="100.38" cy="4.15" r="4.15"/><circle class="cls-1" cx="100.05" cy="20.88" r="4.15"/><circle class="cls-1" cx="112.14" cy="32.96" r="4.15"/><circle class="cls-1" cx="61.38" cy="71.66" r="4.15"/><circle class="cls-1" cx="49.6" cy="83.46" r="4.15"/><circle class="cls-1" cx="128.86" cy="32.96" r="4.15"/></svg>