<svg id="Capa_1" data-name="Capa 1" xmlns="http://www.w3.org/2000/svg" viewBox="0 0 141.73 141.73"><defs><style>.cls-1{fill:#d60b52;}</style></defs><title>Icono_</title><path class="cls-1" d="M87.23,92.82h9.63a7.66,7.66,0,0,0,7.63-7.67V78.29h6.76a7.66,7.66,0,0,0,7.63-7.67V60.89a7.66,7.66,0,0,0-7.63-7.67h-6.76V46.36a7.66,7.66,0,0,0-7.63-7.67H87.23a7.66,7.66,0,0,0-7.63,7.67v6.86H72.83a7.65,7.65,0,0,0-7.62,7.67v9.73a7.65,7.65,0,0,0,7.62,7.67H79.6v6.86A7.66,7.66,0,0,0,87.23,92.82Zm-14.4-20a2.14,2.14,0,0,1-2.11-2.16V60.89a2.14,2.14,0,0,1,2.11-2.16h9.53A2.75,2.75,0,0,0,85.11,56V46.36a2.14,2.14,0,0,1,2.12-2.16h9.63A2.14,2.14,0,0,1,99,46.36V56a2.75,2.75,0,0,0,2.75,2.75h9.52a2.14,2.14,0,0,1,2.12,2.16v9.73a2.14,2.14,0,0,1-2.12,2.16h-9.52A2.75,2.75,0,0,0,99,75.53v9.62a2.14,2.14,0,0,1-2.12,2.16H87.23a2.14,2.14,0,0,1-2.12-2.16V75.53a2.75,2.75,0,0,0-2.75-2.75Z"/><path class="cls-1" d="M127.9,15.76H56.18a13.51,13.51,0,0,0-13.49,13.5v.2H39.61A10.15,10.15,0,0,0,29.48,39.6v3.9a11.74,11.74,0,0,0-9.55,7.91L12.44,73.73h-4A2.76,2.76,0,0,0,6,75.16L.68,85a2.68,2.68,0,0,0-.34,1.32V113a2.75,2.75,0,0,0,2.75,2.75H11.6a13,13,0,0,0,25.34,0h61a13,13,0,0,0,25.34,0h4.67a13.51,13.51,0,0,0,13.5-13.5V81.63a2.76,2.76,0,1,0-5.51,0v20.62a8,8,0,0,1-8,8h-4.67a13,13,0,0,0-25.34,0H48.2v-81a8,8,0,0,1,8-8H127.9a8,8,0,0,1,8,8V56.72a2.76,2.76,0,1,0,5.51,0V29.26a13.51,13.51,0,0,0-13.49-13.5Zm-17.34,89.77A7.47,7.47,0,1,1,103.1,113,7.47,7.47,0,0,1,110.56,105.53ZM35,39.6A4.63,4.63,0,0,1,39.61,35h3.08v8.42H35ZM25.15,53.17a6.25,6.25,0,0,1,5.92-4.27H42.69V73.73H18.26ZM5.85,97.5H11A2.76,2.76,0,0,0,11,92H5.85V87l4.24-7.76h32.6v31H36.94a13,13,0,0,0-25.34,0H5.85Zm18.42,23A7.47,7.47,0,1,1,31.72,113,7.48,7.48,0,0,1,24.27,120.47Z"/><path class="cls-1" d="M140.93,67.7a2.75,2.75,0,1,0-.34,3.47,2.77,2.77,0,0,0,.34-3.47Z"/></svg>