<svg id="Capa_1" data-name="Capa 1" xmlns="http://www.w3.org/2000/svg" viewBox="0 0 141.73 141.73"><defs><style>.cls-1{fill:#6bc3c8;}</style></defs><title>Icono_</title><path class="cls-1" d="M52.59,67.54a8.4,8.4,0,0,0,5.69-2.23,8.89,8.89,0,0,0,2.81-5.89H80.18a8.6,8.6,0,0,0,9.44,8.07c7-.8,10-9.52,5.22-14.74a8.92,8.92,0,0,0,1.68-9.35C93.1,34.83,80.89,37,80.18,46.05H61.09c-.71-9.1-12.92-11.2-16.34-2.65a8.92,8.92,0,0,0,1.67,9.35C41.35,58.26,45.09,67.54,52.59,67.54ZM49.58,50a4.53,4.53,0,0,1-1-5c2-4.87,9-2.87,8.36,2.27a2.66,2.66,0,0,0,2.58,3H81.74a2.67,2.67,0,0,0,2.59-3A4.44,4.44,0,1,1,91.69,50a3.91,3.91,0,0,0,0,5.55,4.49,4.49,0,0,1,1.1,4.69,4.29,4.29,0,0,1-7,1.91A4.6,4.6,0,0,1,84.35,58,2.43,2.43,0,0,0,82,55.16H59.53a2.58,2.58,0,0,0-2,.91,3.33,3.33,0,0,0-.59,2.7,4.43,4.43,0,0,1-4.88,4.48,4.54,4.54,0,0,1-2.52-7.72A3.91,3.91,0,0,0,49.58,50Z"/><path class="cls-1" d="M124.2,84.55a2.11,2.11,0,0,0,2.07-2.14V56.2l3.67,2.62A7.09,7.09,0,0,0,140,56.94a7.61,7.61,0,0,0-1.83-10.36L74.74,1.32a7.06,7.06,0,0,0-8.22,0L3.11,46.58A7.6,7.6,0,0,0,1.28,56.94a7.1,7.1,0,0,0,10.05,1.88L15,56.2v72.44a5.17,5.17,0,0,0-3.39,4.89v3a5.1,5.1,0,0,0,5,5.17H65.8a2.14,2.14,0,0,0,0-4.27H16.62a.88.88,0,0,1-.87-.9v-3a.88.88,0,0,1,.87-.9h108a.88.88,0,0,1,.87.9v3a.88.88,0,0,1-.87.9H75.46a2.14,2.14,0,0,0,0,4.27h49.19a5.1,5.1,0,0,0,5-5.17v-3a5.17,5.17,0,0,0-3.39-4.89V92.37a2.07,2.07,0,1,0-4.14,0v22.27H99.33V103.83c0-16.31-12.87-29.58-28.7-29.58S41.94,87.52,41.94,103.83v10.81H19.14V53.25L70.63,16.49l51.5,36.76V82.41A2.11,2.11,0,0,0,124.2,84.55ZM99.33,118.91h22.8v9.45H99.33ZM46.08,103.83c0-14,11-25.32,24.55-25.32s24.56,11.36,24.56,25.32v24.53H46.08Zm-4.14,15.08v9.45H19.14v-9.45ZM71.81,12.14A2,2,0,0,0,70,11.86a2,2,0,0,0-.56.28L9,55.31a3,3,0,0,1-4.28-.8,3.25,3.25,0,0,1,.77-4.42L68.88,4.83a3,3,0,0,1,3.51,0L135.8,50.09a3.24,3.24,0,0,1,.78,4.42,3,3,0,0,1-4.28.8Z"/></svg>