<svg id="Capa_1" data-name="Capa 1" xmlns="http://www.w3.org/2000/svg" viewBox="0 0 141.73 141.73"><defs><style>.cls-1{fill:#6bc3c8;}</style></defs><title>Icono_</title><path class="cls-1" d="M114.7,43.62a26.94,26.94,0,0,0-3.93.29,48.28,48.28,0,0,0-12.71-12.7A27.42,27.42,0,0,0,98.38,27,27,27,0,0,0,48.86,12a2.06,2.06,0,1,0,3.43,2.29A22.9,22.9,0,1,1,48.44,27a23.13,23.13,0,0,1,.61-5.26,2.06,2.06,0,1,0-4-.95A27,27,0,0,0,44.32,27a27.42,27.42,0,0,0,.32,4.18A48.36,48.36,0,0,0,31.91,44a27.41,27.41,0,0,0-4.18-.33A27.06,27.06,0,0,0,3.11,81.84a2.06,2.06,0,1,0,3.75-1.71,22.92,22.92,0,1,1,4.59,6.65,2.06,2.06,0,1,0-2.93,2.9,26.88,26.88,0,0,0,19.21,8,26.07,26.07,0,0,0,4.17-.33,48.28,48.28,0,0,0,12.67,12.7,27.7,27.7,0,0,0-.25,3.67,27,27,0,0,0,54.06,0,26.1,26.1,0,0,0-.25-3.67A48,48,0,0,0,110.77,97.4a27,27,0,0,0,23.65-8.26,2.06,2.06,0,0,0-3-2.82,22.68,22.68,0,0,1-16.71,7.24,22.91,22.91,0,1,1,22.91-22.9,22.7,22.7,0,0,1-1.79,8.89,2.06,2.06,0,1,0,3.8,1.61A27.06,27.06,0,0,0,114.7,43.62Zm-43.35,93a22.91,22.91,0,1,1,22.91-22.91A22.94,22.94,0,0,1,71.35,136.64Zm16.32-66a27.07,27.07,0,0,0,18.76,25.73,43.9,43.9,0,0,1-9.27,9.29,27,27,0,0,0-51.62,0,44,44,0,0,1-9.32-9.36,27,27,0,0,0,0-51.33,44.07,44.07,0,0,1,9.47-9.47,27,27,0,0,0,51.32,0,44,44,0,0,1,9.42,9.4A27.08,27.08,0,0,0,87.67,70.66Z"/><path class="cls-1" d="M125.1,63.77V61.35a2.06,2.06,0,1,0-4.12,0v2.42a2.06,2.06,0,1,0,4.12,0Z"/><path class="cls-1" d="M108.43,63.77V61.35a2.07,2.07,0,0,0-4.13,0v2.42a2.07,2.07,0,0,0,4.13,0Z"/><path class="cls-1" d="M54.81,30.22a2.07,2.07,0,0,0-1.33,2.6,18.79,18.79,0,0,0,35.74,0,2.06,2.06,0,0,0-3.92-1.28,14.65,14.65,0,0,1-27.89,0,2.07,2.07,0,0,0-2.6-1.32Z"/><path class="cls-1" d="M63,20.09A2.07,2.07,0,0,0,65.08,18V15.61a2.07,2.07,0,1,0-4.13,0V18A2.07,2.07,0,0,0,63,20.09Z"/><path class="cls-1" d="M81.75,18V15.61a2.06,2.06,0,1,0-4.12,0V18a2.06,2.06,0,0,0,4.12,0Z"/><path class="cls-1" d="M98.73,79.57a2.06,2.06,0,0,0,2.06,2.06h27.82a2.06,2.06,0,0,0,0-4.12H100.79A2.06,2.06,0,0,0,98.73,79.57Z"/><path class="cls-1" d="M68.24,102.64A2.06,2.06,0,0,0,65.4,102c-3,1.83-7.78,4.8-8.54,5.23a2.06,2.06,0,0,0-.15,3.67,2,2,0,0,0,1,.27,3,3,0,0,0,1.48-.51L61,109.54v.13a2.07,2.07,0,0,0,4.13,0v-2.42a1.79,1.79,0,0,0,0-.23l2.51-1.54a2.06,2.06,0,0,0,.67-2.84Z"/><path class="cls-1" d="M85.84,107.2c-.75-.43-5.58-3.4-8.54-5.23a2.06,2.06,0,0,0-2.17,3.51L77.64,107a1.77,1.77,0,0,0,0,.23v2.42a2.06,2.06,0,1,0,4.12,0v-.12l1.79,1.08a3,3,0,0,0,1.48.51,2,2,0,0,0,1-.27,2.05,2.05,0,0,0-.15-3.67Z"/><path class="cls-1" d="M23.77,62.61c-3.21-1.72-6.81-3.68-7.45-4a2,2,0,0,0-2.22-.12,2.08,2.08,0,0,0-1,1.82c0,1.23.67,1.59,2.27,2.47l1.37.75v2.59a2.07,2.07,0,0,0,4.13,0v-.36l1,.53a2,2,0,0,0,1,.25,2.06,2.06,0,0,0,1-3.88Z"/><path class="cls-1" d="M41.35,58.44a2.05,2.05,0,0,0-2.22.12c-.63.37-4.24,2.33-7.44,4a2.06,2.06,0,1,0,1.95,3.63l1-.53v.36a2.06,2.06,0,0,0,4.12,0V63.48l1.38-.75c1.59-.88,2.25-1.24,2.27-2.47a2.09,2.09,0,0,0-1-1.82Z"/><path class="cls-1" d="M81.9,123.37a18.73,18.73,0,0,0-21.09,0,2.06,2.06,0,1,0,2.32,3.41,14.62,14.62,0,0,1,16.44,0,2.07,2.07,0,0,0,2.33-3.41Z"/><path class="cls-1" d="M27.27,72.38a9.41,9.41,0,0,0-9.39,9.4v.27a3.64,3.64,0,0,0,3.64,3.64H35.11a3.64,3.64,0,0,0,3.64-3.64v-.27a9.41,9.41,0,0,0-9.4-9.4Zm7.35,9.19H22a5.28,5.28,0,0,1,5.27-5.06h2.08A5.28,5.28,0,0,1,34.62,81.57Z"/></svg>