<svg id="Capa_1" data-name="Capa 1" xmlns="http://www.w3.org/2000/svg" viewBox="0 0 141.73 141.73"><defs><style>.cls-1{fill:#6bc3c8;}</style></defs><title>Icono_</title><path class="cls-1" d="M139.51,104.24l-9-17.52a21.72,21.72,0,0,0-27.08-10.43.35.35,0,0,1-.45-.18l-2.31-4.5a4.55,4.55,0,0,0-6.11-2l-.33.18L83,47.71,97.79,18.77a11.93,11.93,0,0,0-5.18-16L88.23.5a4.54,4.54,0,0,0-6.11,2L80.35,5.94a10.38,10.38,0,0,0-.64,8,6.31,6.31,0,0,1-.39,4.82l-4.73,9.17a.38.38,0,0,1-.51.17L71.89,27A2.08,2.08,0,0,0,70,27h0l-2.19,1.12a.39.39,0,0,1-.51-.16l-4.68-9.18a6.31,6.31,0,0,1-.39-4.82,10.38,10.38,0,0,0-.64-8L59.81,2.47a4.53,4.53,0,0,0-6.1-2L49.39,2.7a11.93,11.93,0,0,0-5.17,16L59,47.62,55.73,54a2.08,2.08,0,0,0,.9,2.8,2.18,2.18,0,0,0,.95.23,2.09,2.09,0,0,0,1.85-1.13l1.89-3.7,7.33,14.34L63,77.65l-11.63-6,1.08-2.65a2.08,2.08,0,0,0-3.7-1.9l-1.08,2.66-.34-.17a4.53,4.53,0,0,0-6.1,2l-2.31,4.5a.37.37,0,0,1-.45.19A21.71,21.71,0,0,0,11.35,86.73l-9,17.52a21.76,21.76,0,0,0,9.45,29.27L25,140.24a11.74,11.74,0,0,0,5.41,1.32A11.93,11.93,0,0,0,41,135.06L66.78,84.71a4.55,4.55,0,0,0,.28-3.47A4.74,4.74,0,0,0,66.43,80L71,71.09l4.52,8.84a4.55,4.55,0,0,0-.4,4.77l25.77,50.36a11.92,11.92,0,0,0,16,5.18l13.13-6.72a21.77,21.77,0,0,0,9.46-29.28ZM37.32,133.17A7.78,7.78,0,0,1,32.79,137a7.67,7.67,0,0,1-5.92-.48l-13.13-6.72a17.61,17.61,0,0,1-7.65-23.68l9-17.51A17.56,17.56,0,0,1,37,80.18,4.51,4.51,0,0,0,42.58,78l2.31-4.5a.38.38,0,0,1,.51-.16l17.52,9a.36.36,0,0,1,.18.22.34.34,0,0,1,0,.29l-2.41,4.72L53.76,84a2.08,2.08,0,1,0-1.89,3.7l6.9,3.53Zm41-103.35L83,20.65a10.42,10.42,0,0,0,.64-8,6.26,6.26,0,0,1,.39-4.82l1.78-3.48a.38.38,0,0,1,.51-.16l4.38,2.24a7.76,7.76,0,0,1,3.37,10.44L80.61,43.15,75,32.21a4.51,4.51,0,0,0,3.27-2.39Zm-27-23.41L55.6,4.2a.38.38,0,0,1,.17,0,.37.37,0,0,1,.34.2l1.78,3.48a6.26,6.26,0,0,1,.39,4.82,10.42,10.42,0,0,0,.64,8l4.67,9.17a4.55,4.55,0,0,0,6.11,2l.34-.18L90.56,71.7,79,77.62,47.92,16.85A7.76,7.76,0,0,1,51.29,6.41Zm85.6,113.15a17.56,17.56,0,0,1-8.73,10.26L115,136.54a7.75,7.75,0,0,1-10.44-3.37L83.12,91.23,90,87.69A2.08,2.08,0,1,0,88.13,84l-6.91,3.54-2.41-4.72A.38.38,0,0,1,79,82.3l17.52-9a.47.47,0,0,1,.17,0,.39.39,0,0,1,.34.21L99.31,78a4.52,4.52,0,0,0,5.63,2.18,17.55,17.55,0,0,1,21.9,8.44l9,17.51a17.52,17.52,0,0,1,1.08,13.43Z"/><path class="cls-1" d="M121.79,91.21a11.94,11.94,0,0,0-16-5.18L97,90.51a7,7,0,0,0-3,9.42L107.4,126.2a7,7,0,0,0,9.41,3l8.76-4.48a11.93,11.93,0,0,0,5.18-16Zm5.74,25.33a7.76,7.76,0,0,1-3.85,4.52l-8.76,4.48a2.85,2.85,0,0,1-3.82-1.23L97.65,98a2.86,2.86,0,0,1,1.23-3.82l8.76-4.48a7.76,7.76,0,0,1,10.44,3.37l9,17.52a7.76,7.76,0,0,1,.48,5.92Z"/><path class="cls-1" d="M44.9,90.51,36.14,86a11.92,11.92,0,0,0-16,5.18l-9,17.52a11.92,11.92,0,0,0,5.18,16l8.76,4.49a7,7,0,0,0,9.42-3l3-5.92a2.08,2.08,0,1,0-3.7-1.9l-3,5.93A2.84,2.84,0,0,1,27,125.54l-8.76-4.48a7.78,7.78,0,0,1-3.38-10.44l9-17.51a7.77,7.77,0,0,1,10.44-3.38L43,94.21A2.86,2.86,0,0,1,44.24,98l-6.71,13.12a2.08,2.08,0,0,0,3.7,1.89l6.71-13.12a7,7,0,0,0-3-9.42Z"/><path class="cls-1" d="M73.4,44.27H73v-.38a2.08,2.08,0,1,0-4.16,0v.38h-.38a2.08,2.08,0,1,0,0,4.16h.38v.38a2.08,2.08,0,0,0,4.16,0v-.38h.38a2.08,2.08,0,0,0,0-4.16Z"/></svg>