<svg id="Capa_1" data-name="Capa 1" xmlns="http://www.w3.org/2000/svg" viewBox="0 0 141.73 141.73"><defs><style>.cls-1{fill:#6bc3c8;}</style></defs><title>Icono_</title><path class="cls-1" d="M139,123.42h-3.55L122.17,79.47a2.78,2.78,0,0,0-2.55-2,15.43,15.43,0,0,0,.09-1.67,15.28,15.28,0,0,0-13.22-15.12,16,16,0,0,0-24.68-8.9,23.54,23.54,0,0,0-32.59,5h0a16,16,0,0,0-14.73,9.81,16.08,16.08,0,0,0-9.19,5.79A15.92,15.92,0,0,0,22.6,77.5h-.38a2.76,2.76,0,0,0-2.65,2l-13.25,44H2.77A2.77,2.77,0,0,0,0,126.19v13.42a2.77,2.77,0,0,0,2.77,2.77H58.35a2.77,2.77,0,1,0,0-5.53H5.54V129H136.2v7.89H83.38a2.77,2.77,0,1,0,0,5.53H139a2.77,2.77,0,0,0,2.77-2.77V126.19A2.77,2.77,0,0,0,139,123.42ZM29.62,75.84a10.5,10.5,0,0,1,7.16-4,2.78,2.78,0,0,0,2.38-2,10.45,10.45,0,0,1,11.15-7.46,2.77,2.77,0,0,0,2.63-1.25A18,18,0,0,1,80,57.45a2.77,2.77,0,0,0,3.78-.09,10.4,10.4,0,0,1,17.63,6.29,2.78,2.78,0,0,0,2.82,2.47h.22a9.73,9.73,0,0,1,9.71,9.72A10.36,10.36,0,0,1,114,77.5H28.56a10.37,10.37,0,0,1,1.06-1.66ZM12.1,123.42,24.27,83h93.19l12.17,40.38Z"/><path class="cls-1" d="M73.47,138.56a2.76,2.76,0,1,0-1,3.36,2.79,2.79,0,0,0,1-3.36Z"/><path class="cls-1" d="M90.28,88.72a9.55,9.55,0,0,0-9,6.29H60.41a9.52,9.52,0,1,0-16.95,8.41,9.52,9.52,0,1,0,16.95,8.41H81.33a9.52,9.52,0,1,0,16.94-8.41,9.52,9.52,0,0,0-8-14.7Zm2.55,16.82a4,4,0,1,1-6.52,3.34,2.77,2.77,0,0,0-2.77-2.58H58.19a2.76,2.76,0,0,0-2.76,2.58,4,4,0,1,1-6.53-3.34,2.76,2.76,0,0,0,0-4.24A4,4,0,1,1,55.43,98a2.76,2.76,0,0,0,2.76,2.58H83.54A2.77,2.77,0,0,0,86.31,98a4,4,0,1,1,6.52,3.34,2.76,2.76,0,0,0,0,4.24Z"/></svg>