<svg id="Capa_1" data-name="Capa 1" xmlns="http://www.w3.org/2000/svg" viewBox="0 0 141.73 141.73"><defs><style>.cls-1{fill:#d60b52;}</style></defs><title>Icono_</title><path class="cls-1" d="M71.17,15A2.79,2.79,0,0,0,74,12.16V2.26a2.79,2.79,0,1,0-5.58,0v9.9A2.79,2.79,0,0,0,71.17,15Z"/><path class="cls-1" d="M96.05,21.08A2.8,2.8,0,0,0,100,20.8l6.93-8a2.79,2.79,0,0,0-4.21-3.66l-6.93,8A2.8,2.8,0,0,0,96.05,21.08Z"/><path class="cls-1" d="M117.6,43.78a2.81,2.81,0,0,0,1.39-.37l9.16-5.28a2.79,2.79,0,1,0-2.78-4.83l-9.16,5.28a2.78,2.78,0,0,0,1.39,5.2Z"/><path class="cls-1" d="M136.55,65.21H126a2.79,2.79,0,1,0,0,5.58h10.58a2.79,2.79,0,0,0,0-5.58Z"/><path class="cls-1" d="M42.36,20.8a2.75,2.75,0,0,0,2.1,1,2.83,2.83,0,0,0,1.83-.68,2.8,2.8,0,0,0,.27-3.94l-6.93-8a2.79,2.79,0,0,0-4.21,3.66Z"/><path class="cls-1" d="M14.19,38.13l9.17,5.28a2.78,2.78,0,0,0,3.8-1,2.78,2.78,0,0,0-1-3.8L17,33.3a2.79,2.79,0,1,0-2.78,4.83Z"/><path class="cls-1" d="M19.16,68a2.79,2.79,0,0,0-2.78-2.79H5.79a2.79,2.79,0,0,0,0,5.58H16.38A2.79,2.79,0,0,0,19.16,68Z"/><path class="cls-1" d="M122.27,122.9v-3.51a10.86,10.86,0,0,0-9.12-10.7V62.9A42,42,0,0,0,71.23,21h-.12A42,42,0,0,0,29.19,62.9v45.79a10.85,10.85,0,0,0-9.11,10.7v3.51a8.13,8.13,0,0,0-5.79,7.77v8.68a2.79,2.79,0,0,0,2.79,2.79H58.57a2.79,2.79,0,1,0,0-5.57H19.87v-5.9a2.54,2.54,0,0,1,2.54-2.54h97.52a2.54,2.54,0,0,1,2.54,2.54v5.9H83.77a2.79,2.79,0,1,0,0,5.57h41.49a2.79,2.79,0,0,0,2.79-2.79v-8.68a8.12,8.12,0,0,0-5.78-7.77Zm-87.51-60A36.4,36.4,0,0,1,71.11,26.55h.12A36.39,36.39,0,0,1,107.58,62.9v45.65H79.17V87.82a15.19,15.19,0,0,0,7-12.83,15,15,0,0,0-30.07,0,15.21,15.21,0,0,0,7,12.83v20.73H34.76ZM67.14,83.66A9.71,9.71,0,0,1,61.71,75a9.46,9.46,0,0,1,18.92,0,9.71,9.71,0,0,1-5.43,8.67,2.77,2.77,0,0,0-1.6,2.52v22.37H68.74V86.18a2.77,2.77,0,0,0-1.6-2.52ZM30.92,114.12h80.5a5.28,5.28,0,0,1,5.27,5.27v3.17h-91v-3.17A5.28,5.28,0,0,1,30.92,114.12Z"/><path class="cls-1" d="M73.69,138.29a2.78,2.78,0,1,0-4.19,3.33,2.84,2.84,0,0,0,3.17,0,2.8,2.8,0,0,0,1-3.38Z"/></svg>