<svg id="Capa_1" data-name="Capa 1" xmlns="http://www.w3.org/2000/svg" viewBox="0 0 141.73 141.73"><defs><style>.cls-1{fill:#5d4294;}</style></defs><title>Icono</title><path class="cls-1" d="M70.9,68.21l-7.48-7.47a12.39,12.39,0,0,0-21,6.71l-1,6.13a50.89,50.89,0,0,1-14.28,27.73A12.65,12.65,0,0,1,9.24,83.42L37.75,54.91A2.77,2.77,0,0,0,33.83,51L5.33,79.51a18.17,18.17,0,0,0,12.86,31A18.09,18.09,0,0,0,31,105.22,56.3,56.3,0,0,0,46.87,74.5l1-6.14a6.86,6.86,0,0,1,11.61-3.71L67,72.13a2.77,2.77,0,0,0,3.92-3.92Z"/><path class="cls-1" d="M46.7,42.05a2.76,2.76,0,1,0,.81,2A2.78,2.78,0,0,0,46.7,42.05Z"/><path class="cls-1" d="M119.42,19.69,105,5.27a18,18,0,0,0-25.44,0L50.44,34.39a2.77,2.77,0,1,0,3.92,3.91L83.48,9.19a12.43,12.43,0,0,1,17.6,0L115.5,23.61a2.77,2.77,0,1,0,3.92-3.92Z"/><path class="cls-1" d="M24.67,85.88a9.18,9.18,0,1,0,0,13A9.17,9.17,0,0,0,24.67,85.88Zm-3.91,9.06a3.64,3.64,0,1,1,0-5.15A3.65,3.65,0,0,1,20.76,94.94Z"/><path class="cls-1" d="M111.33,27.78,95.85,12.3a2.76,2.76,0,1,0-3.91,3.91L107.42,31.7a2.77,2.77,0,1,0,3.91-3.92Z"/><path class="cls-1" d="M103.24,35.87,87.76,20.39a2.76,2.76,0,0,0-3.91,3.91L99.33,39.78a2.76,2.76,0,1,0,3.91-3.91Z"/><path class="cls-1" d="M95.16,44,79.68,28.47a2.77,2.77,0,1,0-3.92,3.92L91.24,47.87A2.77,2.77,0,0,0,95.16,44Z"/><path class="cls-1" d="M87.07,52,71.59,36.56a2.76,2.76,0,0,0-3.91,3.91L83.16,56A2.76,2.76,0,1,0,87.07,52Z"/><path class="cls-1" d="M79,60.13,63.51,44.64a2.77,2.77,0,1,0-3.92,3.92L75.07,64A2.77,2.77,0,1,0,79,60.13Z"/><path class="cls-1" d="M126.55,86.74a16.23,16.23,0,1,0-24.41,0H87.61a2.77,2.77,0,0,0,0,5.54h25.7a16.2,16.2,0,0,0-3.8,7.93H45.2a10.72,10.72,0,0,1,10.33-7.93H66.44a2.77,2.77,0,0,0,0-5.54H55.53A16.26,16.26,0,0,0,39.3,102.94a2.77,2.77,0,0,0,2.77,2.76h38.7L53.41,133.06a2.78,2.78,0,0,0,0,3.92,16.25,16.25,0,0,0,23,0l31.27-31.28h1.87a16.23,16.23,0,1,0,17-19Zm-54.1,46.32a10.69,10.69,0,0,1-12.91,1.71L88.6,105.7H99.81ZM113.76,86.7a10.69,10.69,0,0,1-7-18.23,10.71,10.71,0,0,1,15.13,0,10.69,10.69,0,0,1-7,18.23Zm11.74,26.93a10.7,10.7,0,1,1,10.7-10.69A10.7,10.7,0,0,1,125.5,113.63Z"/><path class="cls-1" d="M79.33,87.52a2.76,2.76,0,1,0-3.91,3.91,2.8,2.8,0,0,0,2,.81,2.76,2.76,0,0,0,2-4.72Z"/><path class="cls-1" d="M105.24,94.67a2.74,2.74,0,0,0-1.95-.81,2.77,2.77,0,1,0,0,5.53,2.78,2.78,0,0,0,2.77-2.76A2.77,2.77,0,0,0,105.24,94.67Z"/></svg>