<svg id="Capa_1" data-name="Capa 1" xmlns="http://www.w3.org/2000/svg" viewBox="0 0 141.73 141.73"><defs><style>.cls-1{fill:#6bc3c8;}</style></defs><title>Icono_</title><path class="cls-1" d="M75.71,50a2.08,2.08,0,1,0,0-4.15h-10a2.08,2.08,0,1,0,0,4.15Z"/><path class="cls-1" d="M56.34,56.27a2.14,2.14,0,0,0,2.2,2.07H82.89a2.07,2.07,0,1,0,0-4.14H58.54a2.14,2.14,0,0,0-2.2,2.07Z"/><path class="cls-1" d="M86.63,97H79.69v-6.5a5.94,5.94,0,0,0-6.12-5.74h-5.7a6,6,0,0,0-6.12,5.74V97H54.82a6,6,0,0,0-6.12,5.74v5.35a5.94,5.94,0,0,0,6.12,5.73h6.93v6.51a5.94,5.94,0,0,0,6.12,5.73h5.7a5.94,5.94,0,0,0,6.12-5.73v-6.51h6.94a5.94,5.94,0,0,0,6.12-5.73v-5.35A6,6,0,0,0,86.63,97Zm1.7,11.09a1.67,1.67,0,0,1-1.7,1.59H77.49a2.15,2.15,0,0,0-2.21,2.07v8.58a1.65,1.65,0,0,1-1.71,1.59h-5.7a1.65,1.65,0,0,1-1.7-1.59v-8.58A2.15,2.15,0,0,0,64,109.7H54.82a1.67,1.67,0,0,1-1.7-1.59v-5.35a1.65,1.65,0,0,1,1.7-1.6H64a2.15,2.15,0,0,0,2.21-2.07V90.52a1.65,1.65,0,0,1,1.7-1.6h5.7a1.66,1.66,0,0,1,1.71,1.6v8.57a2.15,2.15,0,0,0,2.21,2.07h9.14a1.65,1.65,0,0,1,1.7,1.6Z"/><path class="cls-1" d="M130.09,118.36h-3.32V76a10.42,10.42,0,0,0,4.48,1,10.09,10.09,0,0,0,7-2.7,8.84,8.84,0,0,0,0-13.06l-9.58-9V41.5a2.21,2.21,0,0,0-4.42,0v6.65L108.38,33.31V20.61h15.83v11a2.21,2.21,0,0,0,4.42,0v-11h.21A3.75,3.75,0,0,0,132.7,17v-10a3.75,3.75,0,0,0-3.86-3.62H103.75a3.75,3.75,0,0,0-3.86,3.62V17a3.75,3.75,0,0,0,3.86,3.62H104v8.56L74.38,1.42A5.32,5.32,0,0,0,70.73,0h0a5.31,5.31,0,0,0-3.66,1.42S18.6,46.86,3.24,61.28a8.83,8.83,0,0,0,0,13.06,10.16,10.16,0,0,0,7,2.7,10.4,10.4,0,0,0,4.48-1V94.67a2.12,2.12,0,0,0,2.21,2,2.12,2.12,0,0,0,2.21-2V72.53L70.72,24.11l51.63,48.42v45.83H106.47c.33-.78.62-1.59.89-2.4a33.71,33.71,0,0,0-2.79-27.38C94.65,71.09,71.41,64.41,52.75,73.7h0c-17.29,8.61-24.67,28-17.78,44.66H19.09V104.23a2.12,2.12,0,0,0-2.21-2,2.12,2.12,0,0,0-2.21,2v14.13H11.35a8,8,0,1,0,0,15.93h36.5a39.46,39.46,0,0,0,11.64,5.5,41,41,0,0,0,11.27,1.59,40.09,40.09,0,0,0,22.81-7.09h36.52a8,8,0,1,0,0-15.93ZM104.31,7.46h24v9h-24ZM73.25,20.62a3.78,3.78,0,0,0-5.07,0L14,71.41a5.71,5.71,0,0,1-7.69,0,4.88,4.88,0,0,1,0-7.2L70.19,4.35a.77.77,0,0,1,.53-.21h0a.77.77,0,0,1,.53.21l63.84,59.86a4.87,4.87,0,0,1,0,7.2,5.72,5.72,0,0,1-7.68,0ZM11.35,130.14a3.82,3.82,0,1,1,0-7.63H37a35.82,35.82,0,0,0,5.87,7.63Zm75.27,3.37a35.74,35.74,0,0,1-25.83,2.32,33.26,33.26,0,0,1-20-15.49c-8.77-15.48-2.47-34.76,14-43h0c16.51-8.21,37.08-2.3,45.85,13.18a29.83,29.83,0,0,1,2.47,24.21,32.16,32.16,0,0,1-16.52,18.77Zm43.47-3.37H98.56a35.61,35.61,0,0,0,5.89-7.63h25.64a3.82,3.82,0,1,1,0,7.63Z"/></svg>