<svg id="Capa_1" data-name="Capa 1" xmlns="http://www.w3.org/2000/svg" viewBox="0 0 141.73 141.73"><defs><style>.cls-1{fill:#5d4294;}</style></defs><title>Icono</title><path class="cls-1" d="M135.23,128.67H116.4V44.14a2.08,2.08,0,0,0-4.15,0v4.78H29.48V28.46H53.56v2.59a3.18,3.18,0,0,0,3.19,3.18h6.5v6.51a3.19,3.19,0,0,0,3.19,3.18H75.3a3.19,3.19,0,0,0,3.18-3.18V34.23H85a3.18,3.18,0,0,0,3.19-3.18V28.46h24.08v6.8a2.08,2.08,0,1,0,4.15,0V26.39a2.08,2.08,0,0,0-2.07-2.08H99.52V2A2.08,2.08,0,0,0,97.44,0H61.66a2.08,2.08,0,0,0,0,4.15h33.7V24.31H88.17V22.19A3.19,3.19,0,0,0,85,19h-6.5V12.5A3.19,3.19,0,0,0,75.3,9.32H66.44a3.19,3.19,0,0,0-3.19,3.18V19h-6.5a3.19,3.19,0,0,0-3.19,3.18v2.12H46.37V4.1h6.74a2.08,2.08,0,1,0,0-4.15H44.29A2.07,2.07,0,0,0,42.22,2V24.31H27.41a2.08,2.08,0,0,0-2.08,2.08V128.67H6.51a6.51,6.51,0,1,0,0,13H26.44a2.08,2.08,0,0,0,0-4.15H6.51a2.35,2.35,0,1,1,0-4.7H135.23a2.35,2.35,0,1,1,0,4.7H35.5a2.08,2.08,0,1,0,0,4.15h99.73a6.51,6.51,0,0,0,0-13ZM57.72,23.16h6.5A3.19,3.19,0,0,0,67.41,20V13.47h6.92V20a3.18,3.18,0,0,0,3.18,3.18H84v6.92H77.51a3.18,3.18,0,0,0-3.18,3.19v6.5H67.41v-6.5a3.19,3.19,0,0,0-3.19-3.19h-6.5Zm54.49,29.91v4.16H29.48V53.07Zm-64.46,75.6V116.22H53v12.45Zm36.82-12.45v12.45H57.16V116.22Zm4.15,12.45V116.22H94v12.45Zm9.41,0V114.14a2.08,2.08,0,0,0-2.07-2.08H45.68a2.08,2.08,0,0,0-2.08,2.08v14.53H29.48V61.38h82.77v67.29Z"/><path class="cls-1" d="M52.6,64.87h-15a2.08,2.08,0,0,0-2.08,2.07V80.78a2.08,2.08,0,0,0,2.08,2.08h15a2.08,2.08,0,0,0,2.07-2.08V66.94A2.07,2.07,0,0,0,52.6,64.87ZM50.52,78.71H39.72V69h10.8Z"/><path class="cls-1" d="M104.08,64.87H89.14a2.08,2.08,0,0,0-2.08,2.07V80.78a2.08,2.08,0,0,0,2.08,2.08h14.94a2.08,2.08,0,0,0,2.08-2.08V66.94A2.08,2.08,0,0,0,104.08,64.87ZM102,78.71H91.21V69H102Z"/><path class="cls-1" d="M78.34,64.87h-15a2.07,2.07,0,0,0-2.07,2.07V80.78a2.08,2.08,0,0,0,2.07,2.08h15a2.08,2.08,0,0,0,2.08-2.08V66.94A2.08,2.08,0,0,0,78.34,64.87ZM76.26,78.71H65.47V69H76.26Z"/><path class="cls-1" d="M52.6,89h-15A2.08,2.08,0,0,0,35.57,91v13.84a2.08,2.08,0,0,0,2.08,2.07h15a2.07,2.07,0,0,0,2.07-2.07V91A2.08,2.08,0,0,0,52.6,89Zm-2.08,13.84H39.72V93.1h10.8Z"/><path class="cls-1" d="M104.08,89H89.14A2.08,2.08,0,0,0,87.06,91v13.84a2.08,2.08,0,0,0,2.08,2.07h14.94a2.08,2.08,0,0,0,2.08-2.07V91A2.08,2.08,0,0,0,104.08,89ZM102,102.79H91.21V93.1H102Z"/><path class="cls-1" d="M78.34,89h-15A2.08,2.08,0,0,0,61.32,91v13.84a2.07,2.07,0,0,0,2.07,2.07h15a2.08,2.08,0,0,0,2.08-2.07V91A2.08,2.08,0,0,0,78.34,89Zm-2.08,13.84H65.47V93.1H76.26Z"/></svg>