<svg id="Capa_1" data-name="Capa 1" xmlns="http://www.w3.org/2000/svg" viewBox="0 0 141.73 141.73"><defs><style>.cls-1{fill:#6bc3c8;}</style></defs><title>Icono_</title><path class="cls-1" d="M126.14,0H15.59A8.3,8.3,0,0,0,7.3,8.29V133.21a8.3,8.3,0,0,0,8.29,8.29H126.14a8.3,8.3,0,0,0,8.29-8.29V8.29A8.3,8.3,0,0,0,126.14,0ZM82.22,38.56a12.12,12.12,0,1,1-9.69,21.58h0a12.19,12.19,0,0,1-4.84-9.7,2.77,2.77,0,0,0-5.53,0,17.73,17.73,0,0,0,4.12,11.33,12.12,12.12,0,1,1-6.76-23.2,2.77,2.77,0,0,0,2.21-2.71V5.53H80V35.85a2.78,2.78,0,0,0,2.21,2.71Zm46.68,94.65a2.77,2.77,0,0,1-2.76,2.76H85.54V107.76A17.65,17.65,0,0,0,79.8,73.42a17.51,17.51,0,0,0-8.94,2.42,17.41,17.41,0,0,0-7.57-2.37A2.76,2.76,0,1,0,62.87,79a12,12,0,0,1,6.33,2.38h0a12.2,12.2,0,0,1,4.85,9.7,2.76,2.76,0,0,0,5.52,0,17.73,17.73,0,0,0-4.12-11.33,12.12,12.12,0,1,1,6.76,23.2A2.78,2.78,0,0,0,80,105.65V136H61.72V105.65a2.77,2.77,0,0,0-2.21-2.71A12.15,12.15,0,0,1,49.85,92a2.76,2.76,0,1,0-5.51.42,17.71,17.71,0,0,0,11.85,15.34V136H15.59a2.77,2.77,0,0,1-2.76-2.76V8.29a2.77,2.77,0,0,1,2.76-2.76h40.6V33.74a17.65,17.65,0,0,0,5.75,34.34,17.5,17.5,0,0,0,8.93-2.42,17.47,17.47,0,0,0,8.93,2.42,17.65,17.65,0,0,0,5.74-34.34V5.53h40.6a2.77,2.77,0,0,1,2.76,2.76Z"/><path class="cls-1" d="M120.61,124.92H102.9a2.76,2.76,0,1,0,0,5.52h17.71a2.76,2.76,0,1,0,0-5.52Z"/><path class="cls-1" d="M120.61,113.86H102.9a2.77,2.77,0,1,0,0,5.53h17.71a2.77,2.77,0,1,0,0-5.53Z"/><path class="cls-1" d="M38.84,22.11H21.12a2.77,2.77,0,0,0,0,5.53H38.84a2.77,2.77,0,0,0,0-5.53Z"/><path class="cls-1" d="M38.84,11.05H21.12a2.77,2.77,0,0,0,0,5.53H38.84a2.77,2.77,0,0,0,0-5.53Z"/><path class="cls-1" d="M51.41,77.78h0a2.76,2.76,0,1,0,2.77,2.76A2.75,2.75,0,0,0,51.41,77.78Z"/></svg>