<svg id="Capa_1" data-name="Capa 1" xmlns="http://www.w3.org/2000/svg" viewBox="0 0 141.73 141.73"><defs><style>.cls-1{fill:#6bc3c8;}</style></defs><title>Icono_</title><path class="cls-1" d="M106.78,13a2.76,2.76,0,1,0,2.77,2.76A2.76,2.76,0,0,0,106.78,13Z"/><path class="cls-1" d="M109.31,2.21C92-3.35,77.5,2.87,70.86,6.7c-6.64-3.83-21.12-10-38.46-4.49C9.44,9.57-1.32,43.1,17.09,70.15,25.81,83,27,92.84,28.2,103.3c.91,7.65,1.84,15.57,5.74,24.83,2.62,6.22,6.33,13.34,11.81,13.34h.15c4.41-.1,8-4.48,11.52-14.18a113.9,113.9,0,0,0,4.09-16.42c2-10.16,4.11-20.66,9.37-20.7h0c5.2,0,7.29,10.51,9.3,20.67a115,115,0,0,0,4.1,16.45c3.56,9.72,7.11,14.1,11.52,14.2H96c5.47,0,9.18-7.13,11.81-13.36,3.72-8.85,4.7-16.75,5.64-24.38C114.75,93,116,82.83,124.65,70.12,143.27,42.72,131.89,9.45,109.31,2.21ZM120.08,67c-9.4,13.82-10.79,25.13-12.15,36.06-.93,7.6-1.82,14.78-5.25,22.91-4.07,9.66-6.42,10-6.72,10h0c-.11,0-2.65-.18-6.46-10.58a111.61,111.61,0,0,1-3.87-15.63c-1.21-6.12-2.36-11.9-4.25-16.41-2.42-5.78-5.94-8.71-10.46-8.71h-.07c-4.54,0-8.07,3-10.5,8.77-1.89,4.51-3,10.28-4.25,16.38a110.5,110.5,0,0,1-3.86,15.6c-3.81,10.37-6.35,10.55-6.46,10.56s-2.63-.23-6.74-10c-3.59-8.54-4.44-15.73-5.33-23.34C32.44,92,31.14,81,21.66,67,5.06,42.65,15.07,13.58,34.09,7.47c16.54-5.3,30.19,1.59,35.3,4.8a2.74,2.74,0,0,0,2.94,0c5.1-3.21,18.76-10.1,35.3-4.8C127,13.69,136.34,43.09,120.08,67Z"/><path class="cls-1" d="M120.91,28.61a30,30,0,0,0-3.54-7.13,2.76,2.76,0,1,0-4.56,3.12,24.4,24.4,0,0,1,2.87,5.81,33.88,33.88,0,0,1-2,25.59,2.76,2.76,0,0,0,5,2.41A39.51,39.51,0,0,0,120.91,28.61Z"/><path class="cls-1" d="M60.81,37.8,49.69,34.1,46,23a2.76,2.76,0,0,0-5.24,0L37,34.1,25.9,37.8a2.77,2.77,0,0,0,0,5.25L37,46.76l3.71,11.12a2.76,2.76,0,0,0,5.24,0l3.71-11.12,11.12-3.71a2.77,2.77,0,0,0,0-5.25ZM46.63,42a2.79,2.79,0,0,0-1.75,1.75l-1.52,4.57L41.84,43.7A2.79,2.79,0,0,0,40.09,42l-4.57-1.52,4.57-1.53a2.77,2.77,0,0,0,1.75-1.75l1.52-4.57,1.52,4.57a2.75,2.75,0,0,0,1.75,1.75l4.57,1.53Z"/></svg>