<svg id="Capa_1" data-name="Capa 1" xmlns="http://www.w3.org/2000/svg" viewBox="0 0 141.73 141.73"><defs><style>.cls-1{fill:#ffffff;}</style></defs><title>Icono</title><path class="cls-1" d="M135.88,28.35H24.61L23,9.93A5.85,5.85,0,0,0,17.14,4.6H5.26a5.85,5.85,0,0,0,0,11.69h6.53c3.57,39.77-5.65-63,6.73,74.89a22.47,22.47,0,0,0,8.41,15.24,17.72,17.72,0,1,0,30.62,4.87h32A17.72,17.72,0,1,0,106.2,99.6H40.93A10.86,10.86,0,0,1,31,93l93.4-5.49a5.85,5.85,0,0,0,5.33-4.42l11.88-47.5a5.85,5.85,0,0,0-5.68-7.26Zm-95,95a6,6,0,1,1,6-6A6,6,0,0,1,40.89,123.35Zm65.31,0a6,6,0,1,1,6-6A6,6,0,0,1,106.2,123.35Zm13.18-47.24-90,5.29L25.66,40H128.4Z"/></svg>